<svg xmlns="http://www.w3.org/2000/svg" id="canvas" viewBox="282.280 359.783 1298.303 239.894"><path d="M 383.57,423.12 C 382.88 421.52, 381.92 420.67, 379.79 419.86 C 377.67 419.05, 375.95 418.61, 372.94 419.08 C 369.93 419.56, 367.79 420.39, 364.74 422.23 C 361.69 424.06, 360.52 425.42, 357.70 428.26 C 354.87 431.09, 353.20 433.18, 350.62 436.40 C 348.03 439.63, 346.78 440.83, 344.77 444.38 C 342.77 447.92, 341.61 450.23, 340.60 454.13 C 339.58 458.03, 339.31 460.18, 339.68 463.89 C 340.05 467.59, 340.99 469.25, 342.44 472.64 C 343.90 476.03, 345.01 477.82, 346.96 480.84 C 348.90 483.85, 350.20 485.80, 352.16 487.71 C 354.12 489.62, 355.67 489.63, 356.76 490.40 C 357.86 491.17, 357.62 491.21, 357.62 491.57 C 357.63 491.93, 357.49 492.05, 356.78 492.19 C 356.07 492.33, 355.69 491.94, 354.07 492.27 C 352.44 492.59, 351.41 493.06, 348.64 493.81 C 345.87 494.56, 344.41 495.36, 340.21 496.01 C 336.02 496.67, 332.91 496.60, 327.65 497.08 C 322.39 497.56, 319.01 498.00, 313.91 498.39 C 308.82 498.79, 306.33 499.20, 302.17 499.06 C 298.01 498.92, 296.14 497.64, 293.11 497.68 C 290.08 497.72, 288.58 498.45, 287.04 499.26 C 285.50 500.06, 285.68 500.90, 285.41 501.71 C 285.13 502.51, 285.34 502.58, 285.67 503.28 C 286.01 503.99, 285.66 504.43, 287.07 505.22 C 288.48 506.02, 289.67 506.96, 292.73 507.24 C 295.78 507.53, 298.00 506.99, 302.35 506.64 C 306.70 506.30, 309.32 505.93, 314.47 505.52 C 319.62 505.11, 322.83 504.75, 328.10 504.59 C 333.38 504.43, 336.36 504.70, 340.86 504.71 C 345.36 504.71, 347.22 505.00, 350.60 504.63 C 353.98 504.26, 355.23 504.00, 357.77 502.87 C 360.31 501.74, 361.63 501.09, 363.28 498.97 C 364.92 496.85, 365.74 494.99, 366.00 492.27 C 366.26 489.54, 365.59 487.87, 364.57 485.36 C 363.54 482.85, 362.65 481.89, 360.86 479.72 C 359.06 477.55, 357.52 476.77, 355.61 474.51 C 353.70 472.25, 352.58 470.77, 351.30 468.42 C 350.01 466.06, 349.54 465.14, 349.18 462.75 C 348.82 460.35, 348.78 459.19, 349.49 456.44 C 350.20 453.68, 351.07 451.76, 352.73 448.97 C 354.38 446.18, 355.42 445.10, 357.78 442.47 C 360.15 439.85, 362.12 437.77, 364.56 435.86 C 366.99 433.95, 367.78 433.64, 369.94 432.94 C 372.11 432.24, 373.36 432.82, 375.38 432.37 C 377.40 431.92, 378.48 431.58, 380.05 430.69 C 381.63 429.79, 382.56 429.40, 383.26 427.88 C 383.96 426.37, 384.26 424.73, 383.57 423.12" style="stroke: black; fill: black;"/><path d="M 467.73,447.88 C 467.49 446.13, 466.54 445.09, 464.62 443.67 C 462.71 442.25, 461.42 441.43, 458.14 440.78 C 454.85 440.13, 452.21 440.23, 448.19 440.42 C 444.18 440.61, 442.53 441.13, 438.06 441.75 C 433.59 442.36, 430.82 442.23, 425.84 443.48 C 420.87 444.73, 418.11 445.89, 413.19 447.99 C 408.28 450.09, 405.67 451.20, 401.26 453.99 C 396.85 456.79, 394.46 458.40, 391.15 461.96 C 387.85 465.51, 386.39 467.50, 384.72 471.78 C 383.05 476.05, 382.39 478.94, 382.80 483.35 C 383.21 487.76, 384.17 490.17, 386.76 493.83 C 389.34 497.49, 391.37 499.30, 395.72 501.65 C 400.08 503.99, 402.93 504.66, 408.53 505.56 C 414.12 506.46, 417.74 506.83, 423.69 506.13 C 429.64 505.42, 432.56 504.13, 438.28 502.05 C 443.99 499.97, 447.12 498.73, 452.24 495.72 C 457.36 492.71, 460.14 490.96, 463.90 487.00 C 467.65 483.04, 469.14 480.33, 471.00 475.90 C 472.87 471.47, 473.80 469.20, 473.22 464.86 C 472.65 460.52, 471.22 457.91, 468.13 454.18 C 465.05 450.45, 461.83 448.73, 457.80 446.20 C 453.76 443.66, 451.49 442.92, 447.97 441.51 C 444.46 440.09, 442.78 439.44, 440.22 439.13 C 437.66 438.81, 436.67 439.51, 435.17 439.93 C 433.67 440.35, 433.46 440.69, 432.74 441.22 C 432.02 441.75, 431.61 441.70, 431.57 442.57 C 431.52 443.43, 432.06 444.83, 432.50 445.54 C 432.95 446.25, 433.28 445.85, 433.80 446.11 C 434.32 446.37, 434.24 446.38, 435.10 446.82 C 435.97 447.26, 436.22 447.61, 438.14 448.32 C 440.06 449.02, 441.61 449.30, 444.71 450.33 C 447.81 451.36, 450.10 451.68, 453.64 453.47 C 457.19 455.26, 459.94 456.81, 462.43 459.29 C 464.93 461.78, 465.66 463.08, 466.11 465.88 C 466.56 468.68, 466.07 469.92, 464.70 473.28 C 463.33 476.65, 462.34 479.24, 459.24 482.72 C 456.15 486.20, 453.83 487.90, 449.24 490.67 C 444.65 493.43, 441.53 494.67, 436.29 496.54 C 431.05 498.40, 428.36 499.51, 423.05 499.99 C 417.73 500.47, 414.46 499.86, 409.70 498.92 C 404.94 497.98, 402.56 497.20, 399.25 495.29 C 395.95 493.38, 394.90 491.90, 393.17 489.37 C 391.45 486.83, 390.92 485.60, 390.63 482.61 C 390.34 479.62, 390.58 477.60, 391.73 474.42 C 392.87 471.23, 393.70 469.63, 396.33 466.70 C 398.97 463.76, 401.00 462.21, 404.90 459.75 C 408.80 457.28, 411.35 456.19, 415.85 454.36 C 420.36 452.52, 422.86 451.45, 427.43 450.56 C 432.00 449.67, 434.64 449.96, 438.69 449.92 C 442.74 449.88, 444.30 449.78, 447.69 450.35 C 451.08 450.92, 452.91 452.16, 455.63 452.77 C 458.36 453.37, 459.28 453.45, 461.31 453.38 C 463.35 453.31, 464.51 453.51, 465.79 452.41 C 467.07 451.31, 467.96 449.63, 467.73 447.88" style="stroke: black; fill: black;"/><path d="M 507.71,449.05 C 505.86 449.36, 504.63 450.52, 503.09 452.62 C 501.56 454.72, 501.14 456.28, 500.02 459.54 C 498.91 462.81, 498.62 465.11, 497.51 468.95 C 496.40 472.79, 495.60 474.97, 494.46 478.73 C 493.32 482.49, 492.16 484.42, 491.82 487.73 C 491.48 491.05, 491.91 492.47, 492.77 495.31 C 493.63 498.15, 493.87 499.73, 496.13 501.94 C 498.39 504.15, 500.52 505.97, 504.07 506.36 C 507.62 506.75, 509.61 505.45, 513.87 503.89 C 518.13 502.33, 520.58 501.36, 525.37 498.56 C 530.17 495.77, 533.00 493.67, 537.86 489.93 C 542.72 486.18, 545.09 483.73, 549.68 479.84 C 554.26 475.95, 556.67 473.92, 560.79 470.48 C 564.92 467.04, 567.63 465.69, 570.30 462.65 C 572.97 459.61, 574.13 457.48, 574.15 455.30 C 574.17 453.11, 572.27 451.60, 570.41 451.72 C 568.55 451.83, 566.84 452.83, 564.85 455.87 C 562.86 458.91, 561.87 462.03, 560.45 466.93 C 559.03 471.83, 558.53 475.46, 557.75 480.37 C 556.96 485.27, 556.49 487.51, 556.52 491.46 C 556.55 495.41, 556.87 497.31, 557.89 500.11 C 558.91 502.91, 559.82 503.96, 561.61 505.44 C 563.40 506.92, 565.22 507.90, 566.85 507.53 C 568.48 507.16, 569.66 505.09, 569.77 503.59 C 569.87 502.09, 568.13 501.25, 567.38 500.03 C 566.63 498.81, 566.47 499.20, 566.03 497.48 C 565.58 495.76, 565.17 494.54, 565.17 491.42 C 565.16 488.30, 565.13 486.16, 566.02 481.87 C 566.91 477.58, 567.95 474.33, 569.60 469.96 C 571.25 465.59, 573.46 463.37, 574.28 460.01 C 575.10 456.65, 574.78 454.80, 573.69 453.18 C 572.60 451.57, 570.73 451.12, 568.84 451.94 C 566.96 452.77, 566.74 454.56, 564.28 457.32 C 561.81 460.08, 560.23 462.16, 556.54 465.75 C 552.84 469.35, 550.30 471.47, 545.81 475.30 C 541.33 479.12, 538.88 481.50, 534.12 484.87 C 529.36 488.24, 526.57 490.05, 522.02 492.14 C 517.47 494.22, 514.83 494.62, 511.38 495.29 C 507.93 495.97, 506.70 495.47, 504.76 495.51 C 502.82 495.55, 502.40 495.85, 501.67 495.49 C 500.95 495.14, 501.04 494.97, 501.14 493.73 C 501.23 492.50, 501.60 491.76, 502.14 489.31 C 502.68 486.85, 502.86 484.94, 503.84 481.48 C 504.81 478.02, 505.72 475.66, 507.02 472.02 C 508.32 468.38, 509.17 466.33, 510.34 463.28 C 511.51 460.24, 512.47 459.24, 512.87 456.80 C 513.27 454.37, 513.38 452.65, 512.35 451.10 C 511.32 449.55, 509.56 448.75, 507.71 449.05" style="stroke: black; fill: black;"/><path d="M 667.08,369.93 C 665.72 369.78, 664.84 369.28, 663.36 370.69 C 661.88 372.09, 661.13 373.46, 659.69 376.94 C 658.24 380.43, 657.72 382.99, 656.12 388.13 C 654.51 393.27, 653.51 396.57, 651.67 402.65 C 649.83 408.74, 648.66 412.37, 646.90 418.54 C 645.14 424.71, 644.34 427.67, 642.88 433.52 C 641.42 439.38, 640.82 442.58, 639.59 447.82 C 638.36 453.06, 637.94 455.49, 636.74 459.72 C 635.54 463.94, 634.40 465.74, 633.59 468.93 C 632.78 472.13, 632.46 474.12, 632.69 475.67 C 632.92 477.22, 633.93 476.86, 634.73 476.68 C 635.53 476.50, 636.58 475.64, 636.67 474.76 C 636.77 473.88, 636.90 472.26, 635.19 472.28 C 633.48 472.30, 629.33 473.46, 628.13 474.86 C 626.92 476.26, 627.83 478.13, 629.16 479.29 C 630.48 480.46, 632.54 480.88, 634.75 480.69 C 636.95 480.50, 638.70 480.32, 640.19 478.35 C 641.67 476.38, 641.53 474.27, 642.19 470.83 C 642.84 467.39, 642.81 465.52, 643.45 461.16 C 644.10 456.80, 644.45 454.30, 645.41 449.03 C 646.37 443.76, 646.87 440.61, 648.24 434.83 C 649.61 429.05, 650.39 426.16, 652.25 420.13 C 654.11 414.09, 655.34 410.48, 657.55 404.66 C 659.76 398.84, 660.96 395.68, 663.32 391.04 C 665.67 386.40, 667.60 384.72, 669.32 381.47 C 671.04 378.22, 671.73 376.82, 671.90 374.81 C 672.07 372.79, 671.13 372.37, 670.16 371.39 C 669.20 370.42, 668.44 370.07, 667.08 369.93" style="stroke: black; fill: black;"/><path d="M 617.30,435.31 C 617.57 433.40, 616.80 431.77, 616.03 432.06 C 615.25 432.34, 613.91 434.85, 613.42 436.75 C 612.93 438.65, 612.42 440.15, 613.57 441.54 C 614.72 442.94, 616.24 443.69, 619.16 443.72 C 622.07 443.75, 623.91 442.38, 628.15 441.68 C 632.38 440.98, 635.54 440.60, 640.32 440.22 C 645.10 439.83, 647.73 439.84, 652.05 439.74 C 656.38 439.63, 658.71 440.09, 661.95 439.69 C 665.18 439.29, 666.28 438.68, 668.23 437.74 C 670.17 436.80, 671.13 436.19, 671.67 434.97 C 672.22 433.76, 671.91 432.56, 670.97 431.66 C 670.02 430.76, 668.92 430.73, 666.95 430.48 C 664.97 430.23, 664.15 430.22, 661.10 430.40 C 658.04 430.57, 655.91 431.09, 651.68 431.37 C 647.46 431.64, 644.75 431.75, 639.97 431.76 C 635.18 431.78, 631.91 431.81, 627.76 431.43 C 623.61 431.04, 622.07 429.83, 619.21 429.84 C 616.35 429.84, 615.04 430.03, 613.46 431.45 C 611.87 432.87, 611.73 434.66, 611.28 436.96 C 610.83 439.25, 610.51 441.99, 611.19 442.92 C 611.87 443.86, 613.47 443.16, 614.69 441.64 C 615.91 440.11, 617.03 437.23, 617.30 435.31" style="stroke: black; fill: black;"/><path d="M 749.50,366.25 C 750.34 366.11, 748.97 364.31, 747.48 363.70 C 745.99 363.10, 743.63 362.25, 742.06 363.23 C 740.48 364.20, 740.90 365.07, 739.60 368.56 C 738.31 372.05, 737.70 375.02, 735.57 380.65 C 733.43 386.29, 731.99 389.96, 728.94 396.73 C 725.88 403.51, 723.85 407.45, 720.28 414.52 C 716.71 421.59, 714.48 425.49, 711.08 432.08 C 707.68 438.66, 705.90 441.99, 703.27 447.44 C 700.64 452.90, 699.23 455.43, 697.94 459.35 C 696.65 463.27, 696.05 465.00, 696.80 467.04 C 697.56 469.09, 699.51 469.89, 701.71 469.57 C 703.91 469.24, 705.18 468.22, 707.80 465.42 C 710.42 462.62, 711.34 460.06, 714.81 455.55 C 718.28 451.05, 720.63 447.66, 725.15 442.89 C 729.66 438.12, 732.46 435.49, 737.38 431.69 C 742.30 427.90, 745.39 426.22, 749.74 423.92 C 754.09 421.62, 756.73 421.13, 759.14 420.18 C 761.54 419.23, 761.38 418.79, 761.79 419.18 C 762.19 419.58, 761.61 419.91, 761.16 422.15 C 760.72 424.40, 760.53 426.44, 759.55 430.40 C 758.58 434.37, 757.87 437.27, 756.27 441.97 C 754.67 446.67, 753.23 449.46, 751.54 453.91 C 749.86 458.37, 749.31 460.42, 747.84 464.24 C 746.37 468.07, 744.71 469.99, 744.20 473.06 C 743.70 476.13, 744.14 477.47, 745.30 479.60 C 746.45 481.74, 748.15 483.10, 749.98 483.71 C 751.80 484.33, 753.67 484.00, 754.43 482.66 C 755.18 481.32, 754.42 478.18, 753.74 477.02 C 753.06 475.85, 751.61 476.59, 751.02 476.83 C 750.43 477.08, 750.22 478.48, 750.79 478.25 C 751.37 478.03, 752.93 478.02, 753.89 475.70 C 754.86 473.38, 754.69 470.50, 755.60 466.65 C 756.52 462.81, 756.85 460.88, 758.46 456.50 C 760.07 452.11, 761.75 449.48, 763.67 444.73 C 765.59 439.97, 766.73 437.27, 768.07 432.72 C 769.40 428.16, 770.94 425.61, 770.36 421.95 C 769.79 418.29, 767.85 416.22, 765.19 414.42 C 762.53 412.62, 760.77 412.14, 757.06 412.95 C 753.34 413.76, 751.25 415.63, 746.62 418.49 C 741.99 421.34, 739.04 423.19, 733.90 427.21 C 728.76 431.24, 725.87 433.96, 720.90 438.62 C 715.93 443.29, 713.10 446.37, 709.04 450.55 C 704.98 454.73, 702.80 456.44, 700.60 459.51 C 698.40 462.57, 697.87 464.20, 698.04 465.89 C 698.22 467.58, 700.18 468.79, 701.49 467.94 C 702.80 467.10, 703.27 465.32, 704.59 461.64 C 705.92 457.97, 705.99 455.05, 708.12 449.55 C 710.25 444.06, 711.99 440.77, 715.25 434.19 C 718.52 427.61, 720.74 423.68, 724.43 416.66 C 728.13 409.64, 730.23 405.68, 733.73 399.09 C 737.24 392.50, 738.88 388.99, 741.96 383.71 C 745.04 378.43, 747.43 376.17, 749.15 372.69 C 750.86 369.21, 751.13 368.07, 750.55 366.32 C 749.97 364.57, 747.68 364.31, 746.23 363.93 C 744.78 363.55, 742.66 363.95, 743.31 364.42 C 743.96 364.88, 748.67 366.39, 749.50 366.25" style="stroke: black; fill: black;"/><path d="M 803.10,463.26 C 803.04 464.79, 802.85 465.93, 804.63 467.42 C 806.42 468.91, 808.38 470.39, 812.04 470.69 C 815.69 471.00, 818.11 469.96, 822.92 468.96 C 827.74 467.96, 830.85 467.24, 836.10 465.68 C 841.35 464.12, 844.23 462.95, 849.19 461.15 C 854.15 459.34, 856.40 458.25, 860.89 456.67 C 865.37 455.09, 867.83 454.88, 871.62 453.24 C 875.40 451.59, 877.73 450.90, 879.82 448.44 C 881.91 445.99, 882.16 443.87, 882.05 440.94 C 881.95 438.02, 881.58 436.06, 879.30 433.83 C 877.03 431.60, 874.80 430.37, 870.69 429.79 C 866.59 429.20, 864.07 429.80, 858.77 430.90 C 853.47 432.00, 850.10 433.09, 844.19 435.29 C 838.28 437.48, 835.13 439.00, 829.23 441.87 C 823.32 444.75, 819.97 446.54, 814.67 449.65 C 809.37 452.75, 806.58 454.30, 802.73 457.38 C 798.88 460.47, 797.18 461.77, 795.41 465.07 C 793.64 468.36, 793.49 470.46, 793.89 473.87 C 794.29 477.28, 794.92 479.22, 797.41 482.11 C 799.90 485.00, 801.96 486.42, 806.32 488.32 C 810.68 490.23, 814.01 490.60, 819.21 491.66 C 824.41 492.71, 827.60 493.37, 832.33 493.60 C 837.05 493.83, 840.71 493.98, 842.85 492.82 C 844.99 491.66, 844.96 489.10, 843.02 487.81 C 841.07 486.51, 837.54 487.13, 833.13 486.35 C 828.72 485.57, 825.61 485.06, 820.96 483.89 C 816.32 482.72, 813.25 482.13, 809.90 480.51 C 806.56 478.89, 805.89 477.38, 804.25 475.80 C 802.60 474.21, 802.07 474.01, 801.68 472.60 C 801.29 471.18, 801.24 470.77, 802.30 468.73 C 803.37 466.69, 803.94 465.23, 807.01 462.41 C 810.09 459.59, 812.75 457.71, 817.68 454.64 C 822.62 451.56, 825.99 449.71, 831.69 447.03 C 837.40 444.35, 840.56 442.93, 846.20 441.24 C 851.84 439.54, 855.32 438.90, 859.90 438.55 C 864.47 438.20, 866.26 438.93, 869.09 439.48 C 871.92 440.04, 872.70 441.05, 874.04 441.35 C 875.38 441.65, 875.89 440.88, 875.81 440.99 C 875.73 441.10, 875.18 440.93, 873.63 441.90 C 872.09 442.88, 871.13 444.24, 868.08 445.88 C 865.02 447.53, 862.61 448.37, 858.38 450.14 C 854.14 451.91, 851.72 453.04, 846.90 454.72 C 842.08 456.41, 839.28 457.48, 834.27 458.56 C 829.26 459.64, 826.03 460.00, 821.84 460.11 C 817.64 460.21, 816.02 459.45, 813.30 459.07 C 810.57 458.69, 809.89 458.05, 808.22 458.19 C 806.56 458.33, 805.99 458.77, 804.96 459.78 C 803.94 460.80, 803.17 461.73, 803.10 463.26" style="stroke: black; fill: black;"/><path d="M 907.58,460.22 C 905.84 460.74, 905.05 461.71, 903.90 463.47 C 902.74 465.22, 902.21 466.80, 901.82 469.01 C 901.43 471.21, 901.93 472.66, 901.96 474.48 C 901.99 476.30, 901.94 476.94, 901.98 478.10 C 902.02 479.26, 901.72 479.45, 902.16 480.28 C 902.61 481.10, 903.04 481.70, 904.21 482.24 C 905.37 482.78, 906.71 483.40, 907.97 482.96 C 909.23 482.53, 909.68 482.10, 910.51 480.06 C 911.34 478.03, 910.76 476.29, 912.13 472.77 C 913.51 469.26, 914.65 466.74, 917.40 462.51 C 920.15 458.28, 921.90 455.57, 925.89 451.64 C 929.89 447.71, 932.23 446.07, 937.36 442.87 C 942.49 439.67, 946.46 437.93, 951.55 435.65 C 956.65 433.36, 959.12 432.92, 962.83 431.44 C 966.53 429.97, 968.83 429.65, 970.09 428.28 C 971.35 426.91, 970.97 425.15, 969.13 424.59 C 967.28 424.03, 964.88 424.38, 960.85 425.47 C 956.82 426.57, 954.30 427.56, 948.98 430.06 C 943.67 432.55, 939.74 434.53, 934.28 437.95 C 928.83 441.36, 926.27 443.12, 921.71 447.13 C 917.15 451.14, 915.11 453.85, 911.48 457.99 C 907.85 462.13, 906.24 464.28, 903.55 467.82 C 900.86 471.36, 898.92 472.80, 898.02 475.69 C 897.13 478.59, 898.00 480.26, 899.08 482.29 C 900.15 484.33, 901.42 485.14, 903.40 485.86 C 905.38 486.58, 907.20 486.69, 908.99 485.89 C 910.77 485.09, 911.17 483.75, 912.32 481.86 C 913.47 479.97, 914.08 478.70, 914.73 476.44 C 915.39 474.17, 915.49 472.81, 915.60 470.55 C 915.71 468.29, 915.90 467.09, 915.29 465.15 C 914.68 463.21, 914.11 461.85, 912.57 460.87 C 911.03 459.88, 909.31 459.70, 907.58 460.22" style="stroke: black; fill: black;"/><path d="M 1003.22,446.67 C 1001.83 445.56, 1000.54 445.26, 998.05 445.68 C 995.55 446.09, 993.22 446.51, 990.74 448.73 C 988.27 450.96, 987.61 453.47, 985.67 456.80 C 983.72 460.13, 982.95 461.89, 981.01 465.38 C 979.07 468.87, 977.92 471.08, 975.97 474.27 C 974.02 477.45, 972.19 478.48, 971.28 481.30 C 970.37 484.12, 970.38 486.02, 971.41 488.36 C 972.43 490.71, 973.97 492.42, 976.40 493.03 C 978.83 493.64, 980.67 493.44, 983.56 491.42 C 986.46 489.40, 987.31 486.68, 990.88 482.93 C 994.46 479.18, 996.73 476.99, 1001.43 472.66 C 1006.13 468.33, 1009.04 465.76, 1014.39 461.26 C 1019.73 456.76, 1022.94 454.05, 1028.15 450.15 C 1033.35 446.25, 1036.02 444.44, 1040.42 441.77 C 1044.82 439.10, 1047.66 438.47, 1050.14 436.80 C 1052.62 435.14, 1052.88 434.29, 1052.82 433.44 C 1052.76 432.58, 1051.42 431.66, 1049.83 432.53 C 1048.24 433.40, 1046.37 434.81, 1044.87 437.79 C 1043.37 440.77, 1043.11 443.41, 1042.34 447.42 C 1041.57 451.43, 1041.31 453.77, 1041.03 457.83 C 1040.75 461.89, 1040.57 464.12, 1040.94 467.72 C 1041.31 471.32, 1041.64 472.82, 1042.87 475.83 C 1044.11 478.83, 1044.72 480.52, 1047.13 482.75 C 1049.54 484.98, 1051.81 486.16, 1054.94 487.00 C 1058.07 487.83, 1060.13 487.84, 1062.77 486.93 C 1065.41 486.02, 1067.35 484.41, 1068.12 482.45 C 1068.90 480.48, 1068.05 478.48, 1066.64 477.12 C 1065.24 475.76, 1063.04 475.89, 1061.12 475.65 C 1059.19 475.41, 1058.55 475.96, 1057.01 475.92 C 1055.47 475.88, 1054.39 476.16, 1053.41 475.46 C 1052.42 474.77, 1052.59 474.20, 1052.08 472.45 C 1051.57 470.70, 1051.15 469.43, 1050.86 466.69 C 1050.58 463.95, 1050.22 462.04, 1050.65 458.75 C 1051.08 455.46, 1051.84 453.57, 1053.00 450.23 C 1054.16 446.89, 1055.70 445.24, 1056.47 442.07 C 1057.24 438.90, 1057.55 436.85, 1056.84 434.39 C 1056.14 431.92, 1055.04 430.68, 1052.94 429.76 C 1050.85 428.83, 1049.55 428.38, 1046.36 429.77 C 1043.17 431.16, 1041.27 433.46, 1036.97 436.69 C 1032.68 439.92, 1030.09 441.83, 1024.89 445.91 C 1019.70 450.00, 1016.47 452.72, 1010.98 457.13 C 1005.50 461.54, 1002.54 464.01, 997.45 467.97 C 992.37 471.93, 989.73 473.84, 985.58 476.93 C 981.42 480.02, 978.70 481.20, 976.67 483.42 C 974.65 485.64, 975.22 487.00, 975.46 488.02 C 975.70 489.05, 976.76 488.95, 977.87 488.54 C 978.97 488.13, 979.61 487.85, 980.96 485.99 C 982.31 484.13, 982.93 482.38, 984.62 479.24 C 986.31 476.09, 987.43 473.52, 989.41 470.25 C 991.40 466.99, 992.52 465.32, 994.53 462.91 C 996.54 460.51, 997.81 459.79, 999.46 458.23 C 1001.11 456.67, 1001.68 456.51, 1002.78 455.11 C 1003.89 453.71, 1004.91 452.93, 1005.00 451.25 C 1005.09 449.56, 1004.61 447.79, 1003.22 446.67" style="stroke: black; fill: black;"/><path d="M 1323.13,429.32 C 1324.40 427.96, 1325.31 426.12, 1324.69 423.70 C 1324.06 421.28, 1322.55 419.17, 1320.00 417.22 C 1317.46 415.26, 1315.43 414.43, 1311.98 413.91 C 1308.54 413.39, 1306.48 413.86, 1302.78 414.62 C 1299.09 415.38, 1297.31 416.03, 1293.51 417.70 C 1289.71 419.36, 1287.66 420.39, 1283.79 422.93 C 1279.93 425.48, 1277.93 426.99, 1274.17 430.43 C 1270.42 433.86, 1268.57 435.98, 1265.02 440.13 C 1261.47 444.28, 1259.10 446.65, 1256.41 451.17 C 1253.72 455.69, 1252.56 458.41, 1251.58 462.75 C 1250.59 467.08, 1250.26 469.25, 1251.49 472.85 C 1252.72 476.45, 1254.40 478.76, 1257.71 480.73 C 1261.02 482.70, 1263.66 482.82, 1268.04 482.71 C 1272.42 482.61, 1274.84 481.61, 1279.60 480.20 C 1284.36 478.80, 1287.02 477.87, 1291.84 475.70 C 1296.67 473.53, 1299.21 472.09, 1303.72 469.35 C 1308.24 466.62, 1310.36 464.80, 1314.42 462.03 C 1318.49 459.26, 1320.71 457.88, 1324.05 455.51 C 1327.39 453.14, 1329.65 452.33, 1331.14 450.18 C 1332.63 448.02, 1332.19 446.22, 1331.49 444.74 C 1330.80 443.25, 1329.40 442.61, 1327.66 442.75 C 1325.92 442.90, 1324.50 443.04, 1322.79 445.46 C 1321.07 447.88, 1320.88 450.42, 1319.09 454.84 C 1317.31 459.26, 1316.33 462.10, 1313.86 467.56 C 1311.39 473.03, 1309.76 475.97, 1306.74 482.18 C 1303.73 488.40, 1302.17 491.94, 1298.80 498.63 C 1295.42 505.31, 1293.49 508.90, 1289.86 515.60 C 1286.23 522.30, 1284.23 525.80, 1280.65 532.14 C 1277.07 538.48, 1275.80 541.53, 1271.96 547.30 C 1268.13 553.08, 1265.50 556.15, 1261.48 561.02 C 1257.46 565.89, 1255.56 567.98, 1251.85 571.66 C 1248.15 575.34, 1246.46 576.88, 1242.94 579.41 C 1239.41 581.95, 1237.47 582.88, 1234.23 584.34 C 1230.98 585.79, 1229.41 586.23, 1226.71 586.67 C 1224.01 587.12, 1222.81 586.86, 1220.74 586.57 C 1218.66 586.28, 1217.84 586.15, 1216.34 585.23 C 1214.84 584.31, 1214.64 583.68, 1213.24 581.97 C 1211.84 580.26, 1210.65 579.19, 1209.34 576.67 C 1208.03 574.15, 1207.26 573.10, 1206.68 569.37 C 1206.10 565.65, 1205.89 562.93, 1206.45 558.05 C 1207.02 553.16, 1207.32 550.47, 1209.50 544.94 C 1211.68 539.40, 1214.12 535.73, 1217.35 530.37 C 1220.58 525.02, 1222.92 522.33, 1225.65 518.16 C 1228.39 513.98, 1230.61 511.74, 1231.00 509.52 C 1231.39 507.29, 1229.62 505.97, 1227.61 507.03 C 1225.59 508.10, 1224.00 510.78, 1220.94 514.83 C 1217.87 518.89, 1215.68 521.73, 1212.28 527.30 C 1208.88 532.86, 1206.41 536.72, 1203.92 542.66 C 1201.43 548.60, 1200.89 551.52, 1199.82 557.00 C 1198.75 562.48, 1198.44 565.39, 1198.57 570.06 C 1198.70 574.72, 1199.20 576.57, 1200.46 580.32 C 1201.73 584.06, 1202.68 586.08, 1204.89 588.79 C 1207.11 591.50, 1208.57 592.31, 1211.54 593.88 C 1214.50 595.44, 1216.25 596.32, 1219.71 596.60 C 1223.17 596.88, 1225.24 596.39, 1228.85 595.27 C 1232.45 594.15, 1234.15 593.18, 1237.75 591.01 C 1241.36 588.84, 1243.25 587.51, 1246.88 584.42 C 1250.51 581.33, 1252.19 579.59, 1255.90 575.54 C 1259.60 571.48, 1261.42 569.30, 1265.41 564.16 C 1269.39 559.01, 1272.01 555.80, 1275.84 549.83 C 1279.66 543.86, 1280.93 540.73, 1284.52 534.32 C 1288.12 527.91, 1290.12 524.46, 1293.81 517.76 C 1297.51 511.05, 1299.46 507.43, 1302.98 500.79 C 1306.50 494.16, 1308.10 490.64, 1311.41 484.59 C 1314.72 478.55, 1316.44 475.65, 1319.54 470.56 C 1322.64 465.48, 1324.12 463.04, 1326.93 459.18 C 1329.73 455.32, 1332.38 454.19, 1333.55 451.27 C 1334.72 448.35, 1333.81 446.39, 1332.77 444.57 C 1331.72 442.75, 1330.06 442.40, 1328.34 442.19 C 1326.61 441.97, 1326.05 442.12, 1324.16 443.50 C 1322.27 444.89, 1321.65 446.54, 1318.88 449.10 C 1316.11 451.67, 1314.01 453.44, 1310.29 456.34 C 1306.56 459.24, 1304.48 461.03, 1300.24 463.60 C 1296.00 466.16, 1293.60 467.36, 1289.07 469.15 C 1284.54 470.94, 1281.84 471.59, 1277.59 472.55 C 1273.35 473.51, 1270.95 473.88, 1267.84 473.94 C 1264.73 474.00, 1263.71 473.63, 1262.05 472.86 C 1260.39 472.09, 1260.12 471.80, 1259.54 470.11 C 1258.96 468.41, 1258.55 467.45, 1259.16 464.38 C 1259.77 461.31, 1260.38 458.70, 1262.59 454.74 C 1264.80 450.78, 1266.95 448.38, 1270.22 444.60 C 1273.48 440.82, 1275.38 438.78, 1278.91 435.83 C 1282.45 432.87, 1284.35 431.70, 1287.90 429.83 C 1291.46 427.95, 1293.42 427.34, 1296.69 426.44 C 1299.95 425.54, 1301.59 425.41, 1304.23 425.31 C 1306.87 425.21, 1308.18 425.56, 1309.89 425.94 C 1311.59 426.32, 1311.72 426.56, 1312.75 427.20 C 1313.78 427.84, 1313.94 428.48, 1315.05 429.14 C 1316.17 429.80, 1316.71 430.46, 1318.32 430.50 C 1319.94 430.53, 1321.85 430.68, 1323.13 429.32" style="stroke: black; fill: black;"/><path d="M 1362.16,457.39 C 1360.70 458.04, 1360.19 458.24, 1360.01 459.82 C 1359.82 461.40, 1359.79 463.14, 1361.23 465.27 C 1362.68 467.40, 1364.12 469.28, 1367.22 470.46 C 1370.33 471.64, 1372.31 471.45, 1376.76 471.16 C 1381.22 470.88, 1384.17 470.12, 1389.51 469.03 C 1394.84 467.94, 1398.07 467.19, 1403.42 465.70 C 1408.78 464.21, 1411.63 462.93, 1416.27 461.57 C 1420.91 460.21, 1423.19 460.26, 1426.62 458.90 C 1430.05 457.54, 1431.88 456.95, 1433.40 454.77 C 1434.93 452.59, 1434.97 450.66, 1434.25 448.00 C 1433.54 445.34, 1432.83 442.97, 1429.81 441.48 C 1426.79 439.98, 1424.05 440.60, 1419.16 440.51 C 1414.26 440.42, 1411.48 440.35, 1405.33 441.03 C 1399.19 441.71, 1395.14 442.26, 1388.43 443.92 C 1381.72 445.58, 1378.09 446.92, 1371.79 449.32 C 1365.50 451.71, 1362.26 453.14, 1356.96 455.88 C 1351.66 458.62, 1349.06 460.04, 1345.31 463.01 C 1341.56 465.98, 1339.44 467.20, 1338.21 470.71 C 1336.97 474.22, 1337.22 477.20, 1339.11 480.57 C 1340.99 483.93, 1343.29 485.46, 1347.62 487.56 C 1351.96 489.65, 1354.87 490.07, 1360.78 491.03 C 1366.69 491.99, 1370.12 492.06, 1377.15 492.35 C 1384.19 492.63, 1388.42 492.70, 1395.95 492.45 C 1403.47 492.20, 1407.59 491.75, 1414.76 491.12 C 1421.93 490.49, 1425.63 490.05, 1431.81 489.32 C 1437.99 488.58, 1440.92 487.90, 1445.66 487.45 C 1450.40 486.99, 1452.26 487.63, 1455.50 487.03 C 1458.73 486.42, 1460.14 485.75, 1461.85 484.44 C 1463.56 483.14, 1464.00 481.74, 1464.04 480.50 C 1464.08 479.25, 1463.00 478.59, 1462.05 478.21 C 1461.09 477.83, 1460.87 478.43, 1459.26 478.59 C 1457.65 478.75, 1456.93 478.48, 1454.01 479.02 C 1451.09 479.56, 1449.27 480.27, 1444.68 481.30 C 1440.09 482.33, 1437.15 483.15, 1431.07 484.15 C 1425.00 485.15, 1421.37 485.64, 1414.32 486.31 C 1407.27 486.99, 1403.19 487.43, 1395.82 487.55 C 1388.46 487.67, 1384.25 487.50, 1377.49 486.92 C 1370.74 486.34, 1367.32 485.90, 1362.04 484.65 C 1356.77 483.39, 1354.30 482.33, 1351.10 480.64 C 1347.90 478.95, 1347.21 477.63, 1346.04 476.17 C 1344.86 474.72, 1344.54 474.98, 1345.24 473.38 C 1345.94 471.78, 1346.65 470.65, 1349.54 468.15 C 1352.43 465.66, 1354.85 463.66, 1359.68 460.89 C 1364.51 458.12, 1367.70 456.62, 1373.70 454.32 C 1379.70 452.02, 1383.27 450.74, 1389.68 449.40 C 1396.09 448.07, 1400.03 447.72, 1405.74 447.66 C 1411.46 447.61, 1414.18 448.30, 1418.28 449.13 C 1422.37 449.96, 1423.97 451.48, 1426.22 451.82 C 1428.48 452.15, 1428.96 451.23, 1429.56 450.80 C 1430.17 450.36, 1430.43 449.61, 1429.24 449.62 C 1428.06 449.63, 1426.69 449.81, 1423.65 450.84 C 1420.60 451.86, 1418.43 453.14, 1414.03 454.75 C 1409.62 456.36, 1406.76 457.58, 1401.61 458.89 C 1396.47 460.19, 1393.25 460.77, 1388.30 461.26 C 1383.36 461.76, 1380.34 461.77, 1376.89 461.38 C 1373.45 460.99, 1372.57 459.71, 1371.08 459.30 C 1369.59 458.89, 1369.64 459.47, 1369.45 459.33 C 1369.25 459.19, 1370.55 459.17, 1370.11 458.62 C 1369.67 458.07, 1368.85 456.83, 1367.26 456.59 C 1365.67 456.34, 1363.61 456.74, 1362.16 457.39" style="stroke: black; fill: black;"/><path d="M 1548.37,442.19 C 1547.31 440.88, 1546.11 440.93, 1544.02 440.71 C 1541.93 440.49, 1540.76 440.04, 1537.93 441.09 C 1535.11 442.13, 1533.41 443.64, 1529.91 445.94 C 1526.41 448.23, 1524.17 449.80, 1520.45 452.57 C 1516.72 455.35, 1514.60 456.59, 1511.29 459.80 C 1507.98 463.01, 1506.37 465.05, 1503.90 468.62 C 1501.44 472.19, 1499.95 473.88, 1498.98 477.64 C 1498.00 481.39, 1497.78 483.90, 1499.04 487.40 C 1500.30 490.90, 1501.93 493.10, 1505.28 495.13 C 1508.64 497.17, 1511.19 497.56, 1515.81 497.58 C 1520.42 497.60, 1523.20 496.73, 1528.36 495.23 C 1533.52 493.73, 1536.41 492.47, 1541.59 490.06 C 1546.77 487.65, 1549.66 486.22, 1554.26 483.19 C 1558.86 480.15, 1561.06 478.10, 1564.58 474.88 C 1568.10 471.65, 1569.51 470.35, 1571.84 467.08 C 1574.18 463.80, 1575.16 462.12, 1576.27 458.50 C 1577.38 454.88, 1577.90 452.68, 1577.38 448.97 C 1576.86 445.26, 1575.77 443.20, 1573.66 439.95 C 1571.55 436.70, 1570.10 435.05, 1566.85 432.70 C 1563.60 430.35, 1561.44 429.37, 1557.41 428.20 C 1553.38 427.03, 1550.97 426.98, 1546.71 426.85 C 1542.45 426.73, 1539.52 426.49, 1536.10 427.56 C 1532.68 428.63, 1531.13 430.31, 1529.60 432.20 C 1528.08 434.08, 1528.23 435.66, 1528.47 437.00 C 1528.71 438.33, 1529.77 438.55, 1530.82 438.86 C 1531.87 439.17, 1532.16 438.67, 1533.73 438.54 C 1535.31 438.41, 1536.08 438.61, 1538.70 438.21 C 1541.31 437.80, 1543.58 436.72, 1546.81 436.51 C 1550.04 436.31, 1552.00 436.37, 1554.84 437.17 C 1557.68 437.97, 1558.92 438.84, 1561.01 440.49 C 1563.10 442.14, 1563.94 443.41, 1565.29 445.43 C 1566.64 447.46, 1567.28 448.46, 1567.78 450.62 C 1568.27 452.79, 1568.23 453.82, 1567.75 456.26 C 1567.26 458.69, 1566.94 460.09, 1565.34 462.80 C 1563.74 465.52, 1562.70 466.86, 1559.75 469.84 C 1556.80 472.82, 1554.78 474.88, 1550.60 477.69 C 1546.42 480.51, 1543.67 481.84, 1538.84 483.90 C 1534.02 485.96, 1531.03 486.97, 1526.47 488.00 C 1521.92 489.03, 1519.34 489.26, 1516.06 489.05 C 1512.77 488.84, 1511.78 487.86, 1510.06 486.94 C 1508.35 486.02, 1507.94 485.82, 1507.49 484.44 C 1507.05 483.07, 1507.16 482.31, 1507.83 480.07 C 1508.51 477.84, 1509.07 476.12, 1510.88 473.24 C 1512.69 470.37, 1513.99 468.36, 1516.88 465.68 C 1519.77 463.00, 1521.75 461.98, 1525.33 459.84 C 1528.92 457.69, 1531.38 456.41, 1534.80 454.96 C 1538.22 453.50, 1540.12 453.53, 1542.42 452.57 C 1544.73 451.61, 1544.93 451.23, 1546.32 450.17 C 1547.70 449.10, 1548.94 448.85, 1549.35 447.26 C 1549.76 445.66, 1549.44 443.50, 1548.37 442.19" style="stroke: black; fill: black;"/></svg>