<svg xmlns="http://www.w3.org/2000/svg" id="canvas" viewBox="284.645 420.426 1254.166 83.184"><path d="M 301.02,458.51 C 300.26 458.64, 299.54 459.19, 298.42 460.19 C 297.30 461.20, 296.62 461.93, 295.41 463.53 C 294.19 465.13, 293.45 466.27, 292.35 468.19 C 291.25 470.11, 290.74 471.26, 289.93 473.13 C 289.11 475.00, 288.73 475.93, 288.28 477.53 C 287.83 479.14, 287.56 479.94, 287.67 481.16 C 287.78 482.37, 288.12 483.07, 288.85 483.61 C 289.58 484.15, 290.21 484.15, 291.32 483.85 C 292.43 483.55, 293.08 483.18, 294.40 482.11 C 295.71 481.04, 296.48 480.17, 297.89 478.49 C 299.29 476.81, 299.91 475.65, 301.42 473.70 C 302.94 471.75, 303.77 470.73, 305.45 468.75 C 307.13 466.78, 308.19 465.68, 309.81 463.84 C 311.44 462.00, 312.29 461.01, 313.59 459.55 C 314.88 458.09, 315.53 457.45, 316.31 456.53 C 317.09 455.61, 317.34 455.28, 317.50 454.95 C 317.66 454.63, 317.47 454.60, 317.11 454.90 C 316.74 455.21, 316.26 455.52, 315.66 456.48 C 315.06 457.43, 314.69 458.24, 314.11 459.68 C 313.53 461.12, 313.39 462.12, 312.76 463.69 C 312.14 465.26, 311.72 466.03, 310.98 467.53 C 310.25 469.04, 309.81 469.88, 309.07 471.21 C 308.32 472.55, 307.79 473.07, 307.27 474.21 C 306.74 475.34, 306.36 476.05, 306.42 476.89 C 306.49 477.73, 306.91 478.26, 307.59 478.43 C 308.27 478.60, 308.88 478.46, 309.81 477.76 C 310.74 477.06, 311.23 476.34, 312.23 474.92 C 313.23 473.51, 313.70 472.41, 314.80 470.68 C 315.90 468.95, 316.57 467.92, 317.73 466.28 C 318.89 464.63, 319.41 463.78, 320.61 462.47 C 321.81 461.15, 322.47 460.59, 323.72 459.71 C 324.98 458.83, 325.72 458.51, 326.89 458.05 C 328.06 457.60, 328.61 457.50, 329.59 457.43 C 330.57 457.37, 331.11 457.50, 331.79 457.73 C 332.46 457.96, 332.70 457.98, 332.97 458.59 C 333.24 459.20, 333.17 459.70, 333.12 460.80 C 333.07 461.90, 332.99 462.67, 332.73 464.09 C 332.47 465.51, 332.28 466.31, 331.80 467.89 C 331.32 469.46, 330.89 470.40, 330.31 471.97 C 329.74 473.54, 329.33 474.41, 328.94 475.73 C 328.54 477.06, 328.52 477.68, 328.33 478.61 C 328.14 479.55, 327.92 479.83, 327.98 480.40 C 328.03 480.98, 328.37 481.28, 328.61 481.49 C 328.85 481.70, 329.12 481.48, 329.19 481.46 C 329.27 481.44, 328.93 481.38, 329.00 481.40 C 329.07 481.42, 329.26 481.62, 329.52 481.56 C 329.79 481.50, 329.98 481.48, 330.32 481.09 C 330.66 480.69, 330.82 480.41, 331.22 479.59 C 331.62 478.78, 331.75 478.24, 332.32 477.01 C 332.89 475.79, 333.38 475.05, 334.06 473.46 C 334.74 471.88, 335.19 470.85, 335.73 469.10 C 336.27 467.35, 336.54 466.43, 336.76 464.72 C 336.99 463.01, 337.10 462.06, 336.86 460.53 C 336.62 458.99, 336.34 458.14, 335.57 457.02 C 334.79 455.91, 334.18 455.52, 332.97 454.95 C 331.76 454.38, 330.97 454.19, 329.53 454.18 C 328.08 454.16, 327.29 454.35, 325.74 454.87 C 324.19 455.40, 323.31 455.81, 321.77 456.82 C 320.22 457.84, 319.47 458.55, 318.03 459.95 C 316.59 461.34, 315.98 462.17, 314.57 463.79 C 313.17 465.40, 312.29 466.31, 310.99 468.03 C 309.69 469.75, 308.91 470.81, 308.08 472.38 C 307.25 473.95, 307.01 474.81, 306.82 475.89 C 306.64 476.98, 306.79 477.40, 307.14 477.81 C 307.49 478.22, 307.92 478.29, 308.57 477.95 C 309.22 477.61, 309.65 477.07, 310.40 476.10 C 311.14 475.12, 311.48 474.42, 312.29 473.08 C 313.10 471.73, 313.58 470.89, 314.44 469.36 C 315.30 467.83, 315.80 467.03, 316.60 465.43 C 317.41 463.83, 317.90 462.91, 318.48 461.37 C 319.05 459.82, 319.36 459.01, 319.48 457.68 C 319.60 456.36, 319.55 455.61, 319.09 454.75 C 318.63 453.88, 318.12 453.46, 317.18 453.35 C 316.25 453.24, 315.64 453.48, 314.41 454.22 C 313.17 454.95, 312.51 455.63, 311.01 457.03 C 309.51 458.42, 308.65 459.38, 306.92 461.19 C 305.20 463.00, 304.15 464.12, 302.39 466.10 C 300.64 468.07, 299.76 469.17, 298.16 471.06 C 296.57 472.95, 295.78 473.96, 294.41 475.56 C 293.05 477.16, 292.27 477.87, 291.33 479.08 C 290.39 480.28, 290.02 480.86, 289.70 481.59 C 289.38 482.31, 289.58 482.70, 289.74 482.68 C 289.90 482.67, 290.14 482.31, 290.50 481.52 C 290.87 480.72, 290.99 480.04, 291.58 478.70 C 292.17 477.37, 292.54 476.51, 293.45 474.85 C 294.36 473.20, 295.02 472.20, 296.12 470.42 C 297.21 468.64, 297.94 467.58, 298.94 465.96 C 299.94 464.33, 300.46 463.58, 301.12 462.29 C 301.78 461.00, 302.25 460.27, 302.23 459.51 C 302.21 458.75, 301.78 458.37, 301.02 458.51" style="stroke: black; fill: black;"/><path d="M 365.99,458.86 C 366.02 458.39, 365.97 457.91, 365.47 457.59 C 364.97 457.26, 364.30 457.15, 363.48 457.24 C 362.65 457.33, 362.25 457.55, 361.34 458.03 C 360.43 458.50, 359.99 458.89, 358.93 459.62 C 357.86 460.34, 357.24 460.67, 356.02 461.63 C 354.81 462.59, 354.12 463.29, 352.86 464.41 C 351.60 465.52, 350.90 466.06, 349.72 467.21 C 348.54 468.36, 347.85 468.98, 346.96 470.15 C 346.07 471.32, 345.74 471.96, 345.26 473.06 C 344.79 474.16, 344.55 474.64, 344.58 475.65 C 344.62 476.66, 344.78 477.35, 345.44 478.10 C 346.09 478.84, 346.78 479.16, 347.87 479.40 C 348.96 479.64, 349.57 479.56, 350.90 479.29 C 352.23 479.02, 353.04 478.67, 354.53 478.03 C 356.01 477.38, 356.85 476.93, 358.31 476.05 C 359.77 475.16, 360.55 474.58, 361.85 473.59 C 363.14 472.61, 363.75 472.12, 364.79 471.12 C 365.82 470.13, 366.28 469.59, 367.02 468.61 C 367.76 467.63, 368.24 467.19, 368.49 466.23 C 368.74 465.27, 368.71 464.51, 368.28 463.80 C 367.84 463.09, 367.19 462.80, 366.32 462.68 C 365.44 462.57, 364.91 462.67, 363.90 463.23 C 362.90 463.78, 362.15 464.33, 361.30 465.45 C 360.46 466.58, 360.20 467.58, 359.69 468.84 C 359.18 470.09, 359.10 470.63, 358.76 471.72 C 358.42 472.82, 358.05 473.29, 357.99 474.32 C 357.94 475.35, 358.01 476.08, 358.47 476.88 C 358.92 477.69, 359.55 477.93, 360.27 478.36 C 360.99 478.79, 361.36 479.07, 362.08 479.02 C 362.79 478.96, 363.52 478.69, 363.85 478.10 C 364.18 477.51, 364.06 476.61, 363.73 476.05 C 363.40 475.49, 362.72 475.42, 362.21 475.32 C 361.70 475.23, 361.51 475.48, 361.20 475.56 C 360.89 475.65, 360.68 475.85, 360.65 475.74 C 360.62 475.62, 360.76 475.52, 361.05 475.00 C 361.34 474.48, 361.60 473.98, 362.08 473.14 C 362.57 472.31, 362.83 471.78, 363.48 470.83 C 364.13 469.88, 364.68 469.33, 365.33 468.39 C 365.99 467.46, 366.43 466.91, 366.76 466.16 C 367.09 465.41, 367.05 465.04, 366.98 464.65 C 366.92 464.26, 366.71 464.16, 366.45 464.21 C 366.19 464.26, 366.08 464.46, 365.67 464.91 C 365.26 465.36, 365.05 465.74, 364.40 466.46 C 363.74 467.17, 363.35 467.69, 362.41 468.49 C 361.46 469.29, 360.89 469.68, 359.66 470.46 C 358.43 471.23, 357.64 471.67, 356.26 472.38 C 354.87 473.09, 354.05 473.40, 352.74 473.99 C 351.42 474.59, 350.64 474.91, 349.68 475.34 C 348.72 475.77, 348.45 475.96, 347.94 476.16 C 347.43 476.37, 347.28 476.40, 347.12 476.36 C 346.96 476.32, 346.95 476.30, 347.15 475.95 C 347.34 475.60, 347.58 475.31, 348.09 474.61 C 348.60 473.92, 348.86 473.38, 349.72 472.48 C 350.57 471.58, 351.19 471.11, 352.36 470.13 C 353.53 469.15, 354.30 468.60, 355.55 467.57 C 356.81 466.55, 357.48 465.89, 358.64 465.00 C 359.80 464.12, 360.37 463.82, 361.34 463.15 C 362.32 462.48, 362.89 462.09, 363.51 461.65 C 364.12 461.22, 364.14 461.16, 364.42 460.97 C 364.70 460.78, 364.72 460.90, 364.90 460.70 C 365.08 460.50, 365.11 460.35, 365.33 459.98 C 365.55 459.61, 365.96 459.34, 365.99 458.86" style="stroke: black; fill: black;"/><path d="M 393.77,460.65 C 393.94 460.20, 393.87 459.90, 393.56 459.45 C 393.25 459.00, 393.00 458.73, 392.23 458.42 C 391.46 458.10, 390.89 457.86, 389.71 457.88 C 388.52 457.90, 387.79 458.09, 386.31 458.53 C 384.83 458.97, 383.95 459.26, 382.31 460.11 C 380.66 460.95, 379.68 461.57, 378.07 462.74 C 376.45 463.91, 375.55 464.60, 374.23 465.96 C 372.90 467.33, 372.19 468.17, 371.44 469.56 C 370.70 470.95, 370.54 471.65, 370.49 472.91 C 370.44 474.17, 370.56 474.80, 371.19 475.88 C 371.81 476.96, 372.36 477.65, 373.61 478.32 C 374.86 478.99, 375.79 479.13, 377.42 479.22 C 379.06 479.31, 380.02 479.17, 381.77 478.76 C 383.53 478.35, 384.47 478.03, 386.19 477.18 C 387.91 476.33, 388.76 475.70, 390.37 474.52 C 391.99 473.34, 392.77 472.75, 394.27 471.29 C 395.76 469.83, 396.58 468.96, 397.85 467.22 C 399.12 465.48, 399.62 464.49, 400.60 462.60 C 401.58 460.71, 401.94 459.74, 402.74 457.77 C 403.54 455.81, 403.94 454.72, 404.61 452.77 C 405.27 450.82, 405.49 449.84, 406.07 448.02 C 406.64 446.20, 407.13 445.22, 407.49 443.67 C 407.84 442.13, 408.02 441.36, 407.84 440.30 C 407.67 439.24, 407.33 438.73, 406.60 438.39 C 405.86 438.05, 405.24 438.05, 404.18 438.62 C 403.12 439.19, 402.39 439.82, 401.31 441.24 C 400.23 442.67, 399.76 443.82, 398.78 445.74 C 397.80 447.65, 397.30 448.75, 396.40 450.82 C 395.49 452.89, 395.03 454.05, 394.25 456.09 C 393.48 458.13, 393.08 459.19, 392.52 461.02 C 391.95 462.84, 391.78 463.71, 391.43 465.22 C 391.08 466.72, 390.82 467.28, 390.75 468.53 C 390.69 469.77, 390.69 470.41, 391.10 471.44 C 391.51 472.47, 391.96 473.07, 392.81 473.66 C 393.67 474.25, 394.40 474.33, 395.38 474.40 C 396.37 474.47, 397.02 474.42, 397.76 474.02 C 398.49 473.61, 398.95 472.99, 399.08 472.36 C 399.22 471.74, 398.89 471.24, 398.43 470.87 C 397.97 470.50, 397.44 470.54, 396.79 470.51 C 396.14 470.49, 395.73 470.60, 395.19 470.75 C 394.65 470.90, 394.40 471.30, 394.10 471.27 C 393.80 471.24, 393.77 471.07, 393.69 470.59 C 393.61 470.11, 393.52 469.77, 393.70 468.88 C 393.89 467.98, 394.17 467.46, 394.62 466.12 C 395.08 464.78, 395.32 463.91, 395.96 462.19 C 396.60 460.47, 397.00 459.45, 397.83 457.53 C 398.65 455.61, 399.10 454.50, 400.09 452.58 C 401.09 450.66, 401.77 449.71, 402.80 447.94 C 403.83 446.18, 404.51 445.21, 405.26 443.75 C 406.01 442.29, 406.34 441.55, 406.55 440.64 C 406.75 439.72, 406.56 439.32, 406.30 439.17 C 406.04 439.01, 405.71 439.19, 405.25 439.87 C 404.78 440.55, 404.53 441.18, 403.97 442.58 C 403.41 443.98, 403.04 445.06, 402.46 446.86 C 401.87 448.66, 401.69 449.68, 401.06 451.58 C 400.43 453.48, 400.04 454.52, 399.30 456.38 C 398.55 458.25, 398.23 459.18, 397.33 460.90 C 396.44 462.62, 395.96 463.45, 394.82 464.99 C 393.67 466.52, 392.96 467.28, 391.62 468.57 C 390.29 469.86, 389.57 470.42, 388.15 471.44 C 386.72 472.46, 385.95 473.00, 384.50 473.68 C 383.05 474.36, 382.30 474.55, 380.90 474.85 C 379.50 475.15, 378.68 475.12, 377.49 475.17 C 376.29 475.21, 375.73 475.24, 374.92 475.07 C 374.12 474.91, 373.82 474.71, 373.45 474.34 C 373.08 473.97, 372.92 473.78, 373.09 473.21 C 373.25 472.63, 373.48 472.33, 374.25 471.46 C 375.03 470.59, 375.72 469.92, 376.96 468.87 C 378.21 467.81, 379.01 467.16, 380.47 466.18 C 381.93 465.21, 382.82 464.69, 384.25 463.98 C 385.68 463.27, 386.48 463.04, 387.63 462.64 C 388.78 462.25, 389.27 462.11, 390.00 462.00 C 390.73 461.89, 390.87 462.08, 391.27 462.08 C 391.66 462.07, 391.71 462.04, 392.00 461.96 C 392.29 461.89, 392.36 461.96, 392.72 461.70 C 393.07 461.44, 393.60 461.10, 393.77 460.65" style="stroke: black; fill: black;"/><path d="M 411.98,462.89 C 412.25 463.37, 412.57 463.57, 413.29 463.78 C 414.02 464.00, 414.61 464.07, 415.61 463.95 C 416.62 463.83, 417.23 463.56, 418.32 463.18 C 419.41 462.80, 420.01 462.52, 421.06 462.05 C 422.12 461.58, 422.68 461.33, 423.60 460.82 C 424.52 460.31, 424.92 460.01, 425.66 459.49 C 426.40 458.96, 426.74 458.81, 427.31 458.19 C 427.87 457.57, 428.27 457.19, 428.49 456.38 C 428.72 455.57, 428.71 454.96, 428.43 454.14 C 428.15 453.31, 427.87 452.84, 427.10 452.24 C 426.33 451.65, 425.74 451.35, 424.58 451.16 C 423.42 450.98, 422.71 451.01, 421.29 451.31 C 419.87 451.60, 419.04 451.90, 417.48 452.65 C 415.91 453.40, 415.05 453.99, 413.46 455.06 C 411.87 456.13, 411.02 456.76, 409.52 458.02 C 408.02 459.28, 407.16 459.99, 405.95 461.34 C 404.73 462.68, 404.11 463.37, 403.45 464.75 C 402.79 466.14, 402.62 466.97, 402.63 468.27 C 402.64 469.57, 402.87 470.18, 403.52 471.24 C 404.16 472.31, 404.62 472.78, 405.85 473.58 C 407.07 474.39, 407.83 474.78, 409.62 475.27 C 411.42 475.77, 412.52 475.93, 414.83 476.05 C 417.13 476.18, 418.71 476.08, 421.15 475.90 C 423.59 475.72, 425.01 475.54, 427.04 475.14 C 429.06 474.74, 430.44 474.44, 431.27 473.91 C 432.11 473.38, 432.09 472.93, 431.21 472.47 C 430.33 472.01, 428.92 471.82, 426.87 471.62 C 424.82 471.42, 423.35 471.44, 420.97 471.45 C 418.59 471.47, 417.06 471.71, 414.96 471.70 C 412.87 471.68, 411.98 471.63, 410.49 471.39 C 408.99 471.15, 408.43 470.87, 407.49 470.51 C 406.54 470.16, 406.19 470.05, 405.77 469.63 C 405.36 469.21, 405.30 469.05, 405.40 468.40 C 405.51 467.75, 405.65 467.27, 406.30 466.39 C 406.94 465.51, 407.46 465.03, 408.61 463.99 C 409.77 462.95, 410.63 462.29, 412.06 461.20 C 413.49 460.11, 414.33 459.49, 415.78 458.53 C 417.23 457.58, 418.03 457.07, 419.32 456.43 C 420.61 455.78, 421.25 455.59, 422.25 455.31 C 423.24 455.03, 423.64 455.07, 424.29 455.02 C 424.93 454.97, 425.20 455.05, 425.49 455.06 C 425.77 455.06, 425.67 454.97, 425.70 455.06 C 425.73 455.14, 425.72 455.29, 425.63 455.47 C 425.54 455.66, 425.58 455.76, 425.24 455.99 C 424.90 456.21, 424.58 456.30, 423.94 456.60 C 423.29 456.90, 422.89 457.16, 422.03 457.48 C 421.17 457.81, 420.68 457.92, 419.65 458.21 C 418.63 458.50, 417.91 458.63, 416.90 458.95 C 415.90 459.27, 415.41 459.50, 414.63 459.81 C 413.85 460.11, 413.55 460.15, 413.01 460.47 C 412.48 460.78, 412.16 460.91, 411.95 461.40 C 411.75 461.88, 411.71 462.42, 411.98 462.89" style="stroke: black; fill: black;"/><path d="M 497.85,455.30 C 497.28 455.19, 496.91 455.29, 496.05 455.74 C 495.19 456.18, 494.47 456.57, 493.54 457.54 C 492.60 458.50, 492.18 459.32, 491.37 460.55 C 490.55 461.79, 490.14 462.51, 489.45 463.73 C 488.77 464.94, 488.46 465.54, 487.93 466.64 C 487.40 467.74, 487.08 468.20, 486.80 469.23 C 486.51 470.27, 486.36 470.83, 486.49 471.79 C 486.62 472.75, 486.87 473.33, 487.46 474.02 C 488.05 474.72, 488.55 474.96, 489.45 475.27 C 490.35 475.58, 490.79 475.68, 491.97 475.57 C 493.15 475.46, 493.93 475.36, 495.36 474.74 C 496.79 474.12, 497.63 473.55, 499.11 472.48 C 500.59 471.41, 501.37 470.73, 502.77 469.40 C 504.18 468.07, 504.98 467.29, 506.12 465.82 C 507.26 464.36, 507.84 463.42, 508.47 462.09 C 509.10 460.76, 509.30 460.05, 509.26 459.17 C 509.21 458.29, 508.89 457.84, 508.24 457.70 C 507.59 457.55, 506.77 457.74, 506.02 458.46 C 505.27 459.19, 504.82 460.05, 504.48 461.32 C 504.14 462.58, 504.22 463.42, 504.31 464.79 C 504.40 466.16, 504.52 466.94, 504.93 468.19 C 505.34 469.43, 505.59 470.07, 506.36 471.03 C 507.13 471.99, 507.71 472.43, 508.78 472.99 C 509.86 473.55, 510.41 473.80, 511.73 473.85 C 513.05 473.90, 513.89 473.77, 515.37 473.25 C 516.84 472.74, 517.69 472.27, 519.11 471.27 C 520.53 470.27, 521.23 469.56, 522.48 468.25 C 523.73 466.93, 524.37 466.10, 525.34 464.69 C 526.31 463.28, 526.78 462.42, 527.33 461.19 C 527.88 459.95, 527.92 459.36, 528.10 458.51 C 528.27 457.65, 528.37 457.34, 528.21 456.90 C 528.05 456.46, 527.54 456.33, 527.30 456.29 C 527.05 456.25, 526.89 456.69, 526.97 456.71 C 527.06 456.73, 527.69 456.49, 527.73 456.39 C 527.77 456.30, 527.43 456.23, 527.17 456.22 C 526.90 456.22, 526.76 456.13, 526.40 456.36 C 526.04 456.59, 525.81 456.74, 525.37 457.36 C 524.92 457.99, 524.82 458.50, 524.17 459.50 C 523.53 460.49, 523.06 461.17, 522.14 462.36 C 521.21 463.55, 520.64 464.33, 519.56 465.44 C 518.47 466.55, 517.85 467.07, 516.71 467.90 C 515.56 468.73, 514.86 469.06, 513.84 469.59 C 512.82 470.11, 512.32 470.40, 511.61 470.52 C 510.91 470.64, 510.82 470.50, 510.31 470.20 C 509.79 469.90, 509.43 469.57, 509.04 469.00 C 508.65 468.43, 508.46 468.16, 508.37 467.35 C 508.28 466.54, 508.41 465.96, 508.59 464.95 C 508.77 463.95, 509.13 463.37, 509.27 462.33 C 509.41 461.29, 509.45 460.60, 509.32 459.76 C 509.18 458.91, 509.03 458.42, 508.59 458.09 C 508.15 457.77, 507.79 457.73, 507.12 458.13 C 506.45 458.54, 506.06 459.08, 505.24 460.12 C 504.43 461.16, 504.07 462.08, 503.03 463.33 C 501.98 464.58, 501.29 465.25, 500.01 466.37 C 498.72 467.49, 497.92 468.03, 496.61 468.92 C 495.30 469.82, 494.56 470.23, 493.47 470.83 C 492.38 471.44, 491.84 471.63, 491.15 471.95 C 490.46 472.26, 490.35 472.35, 490.04 472.41 C 489.72 472.47, 489.70 472.40, 489.57 472.24 C 489.44 472.08, 489.34 471.98, 489.38 471.60 C 489.43 471.22, 489.46 470.97, 489.79 470.33 C 490.11 469.68, 490.41 469.26, 491.01 468.38 C 491.60 467.49, 491.95 466.94, 492.75 465.89 C 493.55 464.84, 494.17 464.23, 495.01 463.13 C 495.84 462.02, 496.26 461.37, 496.95 460.37 C 497.64 459.37, 498.08 458.94, 498.46 458.13 C 498.85 457.32, 499.00 456.88, 498.88 456.32 C 498.75 455.75, 498.41 455.42, 497.85 455.30" style="stroke: black; fill: black;"/><path d="M 546.08,453.52 C 545.45 453.41, 544.92 453.61, 543.98 454.14 C 543.05 454.67, 542.37 455.11, 541.39 456.16 C 540.41 457.22, 539.90 458.01, 539.09 459.42 C 538.28 460.82, 537.89 461.79, 537.35 463.20 C 536.81 464.61, 536.60 465.24, 536.38 466.45 C 536.16 467.65, 535.99 468.57, 536.23 469.24 C 536.47 469.90, 536.97 470.08, 537.59 469.76 C 538.21 469.45, 538.65 468.63, 539.32 467.67 C 540.00 466.70, 540.26 466.15, 540.97 464.95 C 541.69 463.74, 542.17 462.88, 542.90 461.65 C 543.64 460.42, 543.95 459.80, 544.64 458.80 C 545.33 457.80, 545.85 457.47, 546.35 456.64 C 546.84 455.81, 547.17 455.29, 547.12 454.67 C 547.07 454.04, 546.70 453.62, 546.08 453.52" style="stroke: black; fill: black;"/><path d="M 552.10,437.35 C 552.33 436.83, 552.00 436.45, 551.71 436.42 C 551.43 436.38, 550.91 436.84, 550.66 437.18 C 550.40 437.52, 550.59 437.76, 550.44 438.12 C 550.30 438.49, 549.93 438.84, 549.95 439.01 C 549.97 439.19, 550.11 439.34, 550.54 439.00 C 550.97 438.67, 551.86 437.86, 552.10 437.35" style="stroke: black; fill: black;"/><path d="M 567.18,426.89 C 566.69 426.79, 566.45 426.89, 565.78 427.28 C 565.12 427.68, 564.67 427.90, 563.84 428.87 C 563.01 429.84, 562.55 430.58, 561.64 432.14 C 560.74 433.70, 560.30 434.71, 559.31 436.65 C 558.32 438.59, 557.78 439.73, 556.69 441.86 C 555.59 443.99, 554.98 445.11, 553.83 447.30 C 552.68 449.49, 551.96 450.74, 550.94 452.81 C 549.91 454.88, 549.33 455.97, 548.70 457.67 C 548.06 459.38, 547.90 460.08, 547.75 461.34 C 547.61 462.59, 547.59 463.14, 547.96 463.94 C 548.33 464.74, 548.87 465.07, 549.59 465.33 C 550.32 465.60, 551.06 465.55, 551.61 465.27 C 552.15 464.99, 552.42 464.49, 552.32 463.92 C 552.23 463.34, 551.61 462.68, 551.14 462.40 C 550.67 462.11, 550.26 462.30, 549.98 462.50 C 549.70 462.70, 549.76 463.19, 549.73 463.41 C 549.71 463.62, 549.70 463.83, 549.85 463.56 C 550.00 463.29, 550.09 462.93, 550.49 462.04 C 550.89 461.14, 551.07 460.56, 551.85 459.07 C 552.63 457.59, 553.29 456.60, 554.39 454.62 C 555.48 452.64, 556.17 451.35, 557.35 449.18 C 558.52 447.01, 559.13 445.87, 560.28 443.77 C 561.43 441.67, 562.07 440.56, 563.12 438.68 C 564.16 436.79, 564.69 435.84, 565.52 434.34 C 566.35 432.84, 566.75 432.22, 567.27 431.18 C 567.79 430.15, 567.94 429.85, 568.14 429.17 C 568.33 428.49, 568.43 428.24, 568.24 427.79 C 568.05 427.33, 567.67 426.99, 567.18 426.89" style="stroke: black; fill: black;"/><path d="M 553.55,453.01 C 553.62 453.52, 553.79 453.95, 554.38 454.38 C 554.97 454.81, 555.52 454.96, 556.49 455.16 C 557.47 455.35, 558.06 455.39, 559.24 455.36 C 560.41 455.32, 561.15 455.20, 562.35 454.96 C 563.56 454.72, 564.24 454.67, 565.26 454.14 C 566.28 453.62, 567.13 453.03, 567.45 452.35 C 567.77 451.67, 567.49 451.06, 566.85 450.73 C 566.22 450.39, 565.27 450.63, 564.27 450.69 C 563.27 450.74, 562.84 450.98, 561.85 451.01 C 560.86 451.05, 560.33 450.96, 559.33 450.88 C 558.33 450.79, 557.74 450.54, 556.85 450.59 C 555.97 450.64, 555.47 450.88, 554.91 451.12 C 554.35 451.37, 554.32 451.42, 554.04 451.80 C 553.77 452.18, 553.48 452.49, 553.55 453.01" style="stroke: black; fill: black;"/><path d="M 591.70,429.48 C 591.18 429.67, 590.98 430.00, 590.46 430.79 C 589.94 431.58, 589.75 432.11, 589.10 433.44 C 588.45 434.76, 588.27 435.64, 587.22 437.43 C 586.18 439.21, 585.34 440.26, 583.87 442.38 C 582.40 444.50, 581.47 445.91, 579.87 448.04 C 578.26 450.16, 577.29 451.08, 575.84 453.00 C 574.39 454.91, 573.59 455.90, 572.61 457.61 C 571.63 459.33, 571.22 460.23, 570.94 461.58 C 570.66 462.93, 570.80 463.51, 571.21 464.38 C 571.61 465.25, 572.08 465.59, 572.96 465.93 C 573.84 466.27, 574.46 466.33, 575.61 466.08 C 576.76 465.83, 577.49 465.48, 578.72 464.68 C 579.94 463.88, 580.65 463.05, 581.74 462.09 C 582.83 461.12, 583.26 460.67, 584.17 459.84 C 585.09 459.02, 585.72 458.63, 586.33 457.96 C 586.93 457.29, 587.16 456.85, 587.20 456.50 C 587.23 456.15, 586.77 456.09, 586.49 456.23 C 586.21 456.37, 586.07 456.73, 585.80 457.21 C 585.54 457.69, 585.44 457.88, 585.15 458.64 C 584.86 459.39, 584.68 459.95, 584.35 460.98 C 584.01 462.02, 583.82 462.70, 583.49 463.81 C 583.17 464.92, 582.98 465.42, 582.74 466.52 C 582.49 467.61, 582.31 468.35, 582.27 469.27 C 582.23 470.19, 582.47 470.55, 582.54 471.11 C 582.62 471.67, 582.59 471.71, 582.66 472.07 C 582.74 472.43, 582.65 472.65, 582.92 472.91 C 583.19 473.17, 583.62 473.41, 584.02 473.37 C 584.42 473.33, 584.60 473.12, 584.90 472.72 C 585.20 472.31, 585.33 471.94, 585.50 471.35 C 585.67 470.75, 585.57 470.50, 585.76 469.74 C 585.94 468.98, 586.13 468.45, 586.44 467.53 C 586.74 466.60, 586.89 466.11, 587.29 465.10 C 587.69 464.09, 588.01 463.52, 588.44 462.46 C 588.86 461.41, 589.20 460.86, 589.41 459.83 C 589.62 458.80, 589.70 458.20, 589.47 457.31 C 589.24 456.43, 588.85 455.95, 588.26 455.41 C 587.67 454.88, 587.32 454.68, 586.53 454.63 C 585.73 454.58, 585.24 454.72, 584.31 455.16 C 583.38 455.60, 582.93 456.15, 581.88 456.83 C 580.82 457.51, 580.23 457.75, 579.02 458.55 C 577.82 459.35, 576.85 459.96, 575.84 460.83 C 574.83 461.70, 574.49 462.29, 573.97 462.90 C 573.46 463.52, 573.43 463.70, 573.25 463.89 C 573.06 464.08, 572.95 464.13, 573.03 463.86 C 573.10 463.58, 573.12 463.39, 573.61 462.51 C 574.11 461.63, 574.48 460.89, 575.51 459.46 C 576.54 458.03, 577.23 457.11, 578.75 455.34 C 580.27 453.57, 581.35 452.69, 583.10 450.61 C 584.85 448.53, 585.89 447.14, 587.48 444.93 C 589.07 442.73, 589.95 441.59, 591.05 439.59 C 592.15 437.59, 592.48 436.51, 592.96 434.93 C 593.44 433.35, 593.44 432.70, 593.46 431.68 C 593.48 430.66, 593.41 430.29, 593.06 429.84 C 592.71 429.40, 592.22 429.29, 591.70 429.48" style="stroke: black; fill: black;"/><path d="M 656.86,434.06 C 656.36 434.00, 655.91 434.09, 655.34 434.61 C 654.77 435.13, 654.62 435.61, 654.01 436.65 C 653.39 437.69, 653.12 438.29, 652.27 439.83 C 651.41 441.37, 650.93 442.36, 649.73 444.35 C 648.53 446.34, 647.75 447.49, 646.27 449.77 C 644.79 452.05, 643.89 453.37, 642.32 455.76 C 640.74 458.15, 639.82 459.46, 638.39 461.72 C 636.95 463.98, 636.21 465.14, 635.14 467.06 C 634.07 468.98, 633.53 469.82, 633.02 471.33 C 632.51 472.84, 632.51 473.60, 632.60 474.62 C 632.70 475.64, 633.07 475.89, 633.51 476.45 C 633.94 477.00, 634.30 477.27, 634.79 477.40 C 635.28 477.54, 635.72 477.48, 635.96 477.11 C 636.19 476.75, 636.09 475.95, 635.98 475.58 C 635.86 475.21, 635.60 475.33, 635.39 475.26 C 635.19 475.20, 635.06 475.37, 634.95 475.27 C 634.85 475.16, 634.70 475.28, 634.87 474.73 C 635.05 474.19, 635.16 473.71, 635.82 472.55 C 636.48 471.38, 636.99 470.64, 638.15 468.90 C 639.31 467.16, 640.12 466.03, 641.62 463.85 C 643.11 461.67, 643.98 460.33, 645.61 457.98 C 647.24 455.63, 648.21 454.38, 649.76 452.10 C 651.32 449.82, 652.12 448.63, 653.39 446.60 C 654.66 444.56, 655.23 443.58, 656.12 441.93 C 657.00 440.28, 657.44 439.56, 657.83 438.35 C 658.21 437.14, 658.04 436.58, 658.05 435.89 C 658.05 435.19, 658.07 435.23, 657.83 434.87 C 657.60 434.50, 657.36 434.11, 656.86 434.06" style="stroke: black; fill: black;"/><path d="M 674.62,457.36 C 674.31 456.90, 673.95 456.79, 673.23 456.67 C 672.51 456.55, 671.98 456.47, 671.04 456.75 C 670.10 457.02, 669.54 457.40, 668.52 458.03 C 667.49 458.66, 666.96 458.98, 665.89 459.91 C 664.83 460.84, 664.09 461.46, 663.20 462.68 C 662.30 463.91, 661.92 464.76, 661.44 466.05 C 660.95 467.34, 660.82 467.96, 660.78 469.14 C 660.74 470.33, 660.69 470.96, 661.25 471.97 C 661.81 472.99, 662.37 473.66, 663.57 474.21 C 664.76 474.77, 665.59 474.78, 667.21 474.75 C 668.83 474.73, 669.75 474.56, 671.67 474.09 C 673.59 473.61, 674.80 473.27, 676.80 472.36 C 678.81 471.46, 679.95 470.73, 681.70 469.55 C 683.46 468.36, 684.33 467.73, 685.56 466.44 C 686.80 465.15, 687.32 464.35, 687.89 463.08 C 688.45 461.81, 688.55 461.21, 688.39 460.09 C 688.23 458.97, 687.93 458.31, 687.09 457.47 C 686.25 456.64, 685.57 456.27, 684.21 455.90 C 682.84 455.53, 681.83 455.49, 680.27 455.64 C 678.72 455.79, 677.86 456.18, 676.43 456.66 C 675.00 457.13, 674.24 457.38, 673.12 458.03 C 672.00 458.68, 671.40 459.10, 670.83 459.89 C 670.25 460.68, 670.22 461.34, 670.24 461.97 C 670.27 462.59, 670.64 462.88, 670.95 463.03 C 671.26 463.17, 671.59 462.85, 671.80 462.72 C 672.01 462.58, 671.80 462.50, 672.00 462.37 C 672.20 462.25, 672.27 462.29, 672.79 462.10 C 673.32 461.90, 673.68 461.69, 674.64 461.40 C 675.59 461.11, 676.35 460.94, 677.58 460.65 C 678.81 460.37, 679.55 460.15, 680.77 459.98 C 681.99 459.81, 682.74 459.86, 683.69 459.80 C 684.63 459.74, 685.04 459.59, 685.51 459.68 C 685.99 459.78, 686.09 459.89, 686.05 460.28 C 686.01 460.66, 685.89 460.88, 685.31 461.59 C 684.73 462.30, 684.28 462.91, 683.13 463.83 C 681.99 464.74, 681.20 465.25, 679.59 466.17 C 677.98 467.09, 676.89 467.68, 675.09 468.43 C 673.28 469.18, 672.22 469.46, 670.57 469.93 C 668.92 470.40, 668.05 470.52, 666.83 470.77 C 665.61 471.02, 665.14 471.17, 664.48 471.17 C 663.83 471.17, 663.68 471.07, 663.55 470.77 C 663.42 470.47, 663.56 470.28, 663.83 469.66 C 664.10 469.04, 664.37 468.56, 664.90 467.67 C 665.44 466.78, 665.75 466.13, 666.50 465.22 C 667.25 464.30, 667.80 463.83, 668.66 463.09 C 669.52 462.35, 670.06 462.06, 670.81 461.51 C 671.57 460.96, 671.88 460.66, 672.45 460.34 C 673.01 460.03, 673.17 460.19, 673.63 459.92 C 674.10 459.65, 674.57 459.51, 674.77 459.00 C 674.96 458.49, 674.92 457.83, 674.62 457.36" style="stroke: black; fill: black;"/><path d="M 699.66,457.69 C 699.34 457.60, 699.00 457.24, 698.46 457.41 C 697.91 457.58, 697.40 457.87, 696.94 458.55 C 696.49 459.24, 696.47 459.76, 696.19 460.85 C 695.90 461.95, 695.65 462.75, 695.52 464.03 C 695.40 465.30, 695.37 466.06, 695.55 467.23 C 695.73 468.41, 695.90 469.00, 696.41 469.92 C 696.92 470.84, 697.27 471.26, 698.11 471.82 C 698.96 472.38, 699.56 472.59, 700.65 472.71 C 701.73 472.84, 702.26 472.78, 703.54 472.45 C 704.82 472.12, 705.53 471.92, 707.03 471.08 C 708.53 470.23, 709.40 469.54, 711.04 468.22 C 712.68 466.90, 713.58 465.99, 715.21 464.50 C 716.83 463.02, 717.73 462.23, 719.17 460.80 C 720.61 459.37, 721.34 458.60, 722.41 457.36 C 723.49 456.12, 724.01 455.46, 724.53 454.59 C 725.06 453.72, 724.93 453.40, 725.02 453.02 C 725.12 452.64, 725.17 452.69, 725.00 452.69 C 724.83 452.68, 724.24 452.80, 724.17 452.99 C 724.09 453.18, 724.11 453.68, 724.61 453.64 C 725.11 453.59, 726.28 453.12, 726.64 452.77 C 727.01 452.42, 726.74 452.17, 726.45 451.91 C 726.15 451.64, 725.73 451.50, 725.17 451.44 C 724.62 451.39, 724.25 451.36, 723.68 451.62 C 723.11 451.87, 723.09 452.07, 722.33 452.71 C 721.56 453.36, 721.01 453.82, 719.85 454.86 C 718.69 455.91, 718.02 456.66, 716.53 457.95 C 715.04 459.23, 714.07 459.92, 712.41 461.29 C 710.75 462.66, 709.74 463.53, 708.23 464.80 C 706.72 466.07, 706.01 466.79, 704.85 467.63 C 703.69 468.46, 703.25 468.63, 702.43 468.97 C 701.62 469.31, 701.35 469.26, 700.77 469.32 C 700.19 469.39, 699.87 469.39, 699.53 469.29 C 699.19 469.18, 699.11 469.22, 699.07 468.80 C 699.02 468.39, 699.12 467.98, 699.29 467.21 C 699.45 466.45, 699.55 465.94, 699.90 464.96 C 700.26 463.98, 700.71 463.30, 701.05 462.32 C 701.39 461.34, 701.60 460.83, 701.62 460.05 C 701.64 459.28, 701.45 458.87, 701.13 458.43 C 700.82 458.00, 700.36 458.04, 700.06 457.89 C 699.77 457.74, 699.98 457.79, 699.66 457.69" style="stroke: black; fill: black;"/><path d="M 730.84,468.13 C 731.32 468.31, 731.56 468.20, 732.15 468.02 C 732.73 467.85, 732.99 467.69, 733.76 467.26 C 734.53 466.83, 735.02 466.58, 735.99 465.87 C 736.96 465.16, 737.56 464.60, 738.62 463.71 C 739.67 462.81, 740.25 462.36, 741.26 461.38 C 742.26 460.41, 742.85 459.77, 743.63 458.81 C 744.42 457.85, 744.74 457.46, 745.18 456.56 C 745.61 455.66, 745.84 455.19, 745.80 454.31 C 745.75 453.42, 745.59 452.80, 744.95 452.13 C 744.30 451.45, 743.70 451.12, 742.58 450.93 C 741.46 450.75, 740.78 450.81, 739.35 451.20 C 737.91 451.60, 736.96 451.94, 735.40 452.90 C 733.83 453.85, 732.89 454.63, 731.52 455.96 C 730.15 457.28, 729.50 458.12, 728.54 459.53 C 727.57 460.93, 727.11 461.61, 726.70 462.98 C 726.29 464.35, 726.16 465.10, 726.49 466.37 C 726.81 467.64, 727.17 468.35, 728.31 469.34 C 729.44 470.32, 730.36 470.78, 732.16 471.29 C 733.96 471.79, 735.04 471.74, 737.31 471.85 C 739.57 471.96, 740.77 471.96, 743.48 471.84 C 746.19 471.73, 747.89 471.61, 750.88 471.27 C 753.87 470.92, 755.56 470.65, 758.43 470.13 C 761.29 469.62, 762.73 469.27, 765.21 468.68 C 767.68 468.08, 768.97 467.79, 770.81 467.16 C 772.64 466.53, 773.38 466.14, 774.40 465.51 C 775.42 464.89, 775.68 464.49, 775.90 464.02 C 776.12 463.56, 775.96 463.34, 775.50 463.21 C 775.05 463.08, 774.74 463.24, 773.63 463.37 C 772.52 463.51, 771.79 463.54, 769.94 463.88 C 768.10 464.22, 766.84 464.58, 764.41 465.07 C 761.97 465.56, 760.56 465.89, 757.78 466.34 C 754.99 466.80, 753.36 467.07, 750.47 467.33 C 747.58 467.60, 745.93 467.60, 743.32 467.68 C 740.72 467.76, 739.52 467.80, 737.46 467.75 C 735.39 467.70, 734.48 467.64, 733.00 467.43 C 731.53 467.22, 730.91 467.03, 730.10 466.69 C 729.29 466.36, 729.08 466.26, 728.97 465.76 C 728.85 465.26, 729.03 464.97, 729.54 464.20 C 730.05 463.43, 730.53 462.92, 731.50 461.91 C 732.48 460.90, 733.16 460.20, 734.41 459.16 C 735.66 458.12, 736.47 457.50, 737.74 456.72 C 739.01 455.93, 739.77 455.69, 740.75 455.23 C 741.74 454.78, 742.12 454.68, 742.68 454.45 C 743.24 454.21, 743.38 454.16, 743.55 454.07 C 743.72 453.98, 743.71 453.86, 743.53 453.99 C 743.34 454.13, 743.14 454.30, 742.62 454.74 C 742.09 455.19, 741.73 455.49, 740.91 456.22 C 740.09 456.95, 739.49 457.53, 738.50 458.37 C 737.51 459.22, 736.99 459.65, 735.97 460.44 C 734.94 461.23, 734.30 461.62, 733.37 462.33 C 732.43 463.03, 731.96 463.30, 731.28 463.96 C 730.60 464.61, 730.26 464.98, 729.95 465.61 C 729.65 466.25, 729.58 466.62, 729.75 467.13 C 729.93 467.63, 730.36 467.96, 730.84 468.13" style="stroke: black; fill: black;"/><path d="M 824.17,454.11 C 823.73 454.20, 823.68 454.24, 823.30 454.59 C 822.91 454.94, 822.66 455.14, 822.24 455.86 C 821.82 456.59, 821.63 457.14, 821.20 458.21 C 820.77 459.28, 820.57 460.05, 820.08 461.21 C 819.58 462.37, 819.30 462.98, 818.73 464.02 C 818.16 465.06, 817.77 465.55, 817.24 466.41 C 816.71 467.26, 816.44 467.59, 816.10 468.30 C 815.76 469.01, 815.46 469.45, 815.54 469.96 C 815.61 470.47, 815.93 470.82, 816.46 470.86 C 816.99 470.91, 817.46 470.65, 818.18 470.19 C 818.90 469.74, 819.27 469.41, 820.05 468.59 C 820.82 467.78, 821.26 467.22, 822.05 466.13 C 822.83 465.04, 823.27 464.39, 823.97 463.15 C 824.67 461.92, 825.07 461.14, 825.54 459.96 C 826.01 458.78, 826.19 458.20, 826.34 457.25 C 826.49 456.31, 826.45 455.85, 826.28 455.24 C 826.10 454.62, 825.89 454.39, 825.47 454.16 C 825.05 453.94, 824.60 454.03, 824.17 454.11" style="stroke: black; fill: black;"/><path d="M 832.48,436.47 C 832.23 435.91, 831.73 435.29, 831.34 435.47 C 830.95 435.65, 830.52 436.80, 830.53 437.37 C 830.54 437.95, 831.22 438.44, 831.39 438.35 C 831.56 438.26, 831.45 437.01, 831.37 436.92 C 831.29 436.83, 830.88 437.42, 830.99 437.91 C 831.10 438.40, 831.60 439.30, 831.91 439.38 C 832.22 439.46, 832.44 438.88, 832.56 438.30 C 832.67 437.72, 832.72 437.04, 832.48 436.47" style="stroke: black; fill: black;"/><path d="M 838.78,455.01 C 838.10 454.91, 837.39 455.23, 836.44 455.77 C 835.48 456.31, 834.90 456.77, 834.00 457.69 C 833.09 458.62, 832.60 459.36, 831.90 460.40 C 831.19 461.44, 830.97 461.99, 830.47 462.88 C 829.96 463.76, 829.59 464.09, 829.39 464.82 C 829.19 465.55, 829.17 466.05, 829.48 466.52 C 829.78 466.99, 830.29 467.22, 830.93 467.19 C 831.58 467.15, 831.81 466.95, 832.69 466.36 C 833.57 465.76, 834.11 465.26, 835.34 464.21 C 836.56 463.16, 837.27 462.25, 838.82 461.09 C 840.36 459.94, 841.30 459.39, 843.07 458.42 C 844.83 457.44, 845.90 456.92, 847.64 456.22 C 849.37 455.52, 850.24 455.34, 851.74 454.90 C 853.24 454.47, 854.15 454.30, 855.13 454.06 C 856.12 453.82, 856.39 453.64, 856.66 453.70 C 856.93 453.76, 856.75 453.83, 856.47 454.36 C 856.19 454.89, 855.88 455.34, 855.25 456.33 C 854.62 457.33, 854.09 458.05, 853.31 459.34 C 852.52 460.63, 852.01 461.49, 851.33 462.80 C 850.64 464.11, 850.29 464.81, 849.88 465.89 C 849.47 466.97, 849.31 467.46, 849.27 468.18 C 849.23 468.89, 849.46 469.17, 849.69 469.45 C 849.92 469.73, 850.14 469.65, 850.43 469.59 C 850.73 469.52, 850.67 469.49, 851.17 469.12 C 851.67 468.75, 852.19 468.56, 852.93 467.73 C 853.67 466.90, 854.00 466.17, 854.86 464.97 C 855.72 463.77, 856.38 463.12, 857.23 461.72 C 858.08 460.31, 858.72 459.42, 859.12 457.95 C 859.52 456.49, 859.48 455.58, 859.21 454.39 C 858.95 453.20, 858.65 452.68, 857.80 451.99 C 856.95 451.31, 856.35 451.07, 854.97 450.95 C 853.59 450.83, 852.63 451.05, 850.89 451.40 C 849.16 451.74, 848.25 452.02, 846.31 452.69 C 844.37 453.37, 843.21 453.83, 841.21 454.79 C 839.21 455.74, 838.13 456.30, 836.31 457.45 C 834.49 458.61, 833.46 459.34, 832.11 460.57 C 830.76 461.80, 830.16 462.51, 829.56 463.61 C 828.95 464.70, 828.91 465.31, 829.08 466.05 C 829.25 466.80, 829.76 467.22, 830.38 467.34 C 831.01 467.47, 831.57 467.18, 832.19 466.69 C 832.81 466.20, 832.87 465.65, 833.47 464.89 C 834.07 464.13, 834.46 463.76, 835.19 462.88 C 835.92 462.01, 836.41 461.42, 837.14 460.52 C 837.87 459.61, 838.30 459.22, 838.84 458.37 C 839.39 457.53, 839.87 456.94, 839.86 456.27 C 839.85 455.59, 839.47 455.11, 838.78 455.01" style="stroke: black; fill: black;"/><path d="M 931.39,424.19 C 930.80 424.43, 930.53 424.87, 929.89 425.81 C 929.26 426.76, 928.84 427.45, 928.22 428.91 C 927.59 430.36, 927.36 431.31, 926.75 433.07 C 926.14 434.83, 925.74 435.83, 925.18 437.70 C 924.61 439.57, 924.48 440.58, 923.92 442.43 C 923.35 444.27, 923.02 445.13, 922.35 446.94 C 921.68 448.75, 921.20 449.64, 920.56 451.48 C 919.92 453.32, 919.70 454.35, 919.14 456.12 C 918.58 457.90, 918.25 458.83, 917.76 460.35 C 917.27 461.87, 917.00 462.56, 916.70 463.71 C 916.39 464.85, 916.18 465.45, 916.23 466.08 C 916.27 466.71, 916.59 466.76, 916.92 466.85 C 917.25 466.94, 917.66 466.75, 917.87 466.53 C 918.08 466.31, 918.45 465.87, 917.98 465.76 C 917.50 465.64, 915.93 465.71, 915.49 465.96 C 915.04 466.21, 915.42 466.71, 915.74 467.01 C 916.07 467.31, 916.58 467.45, 917.13 467.46 C 917.67 467.48, 917.90 467.60, 918.46 467.10 C 919.02 466.59, 919.38 466.05, 919.93 464.94 C 920.48 463.83, 920.66 463.08, 921.22 461.54 C 921.79 460.01, 922.17 459.04, 922.74 457.27 C 923.31 455.50, 923.46 454.49, 924.07 452.68 C 924.68 450.87, 925.11 450.04, 925.79 448.22 C 926.47 446.40, 926.85 445.43, 927.48 443.57 C 928.11 441.72, 928.26 440.76, 928.93 438.96 C 929.59 437.15, 930.13 436.27, 930.80 434.55 C 931.46 432.83, 931.80 431.90, 932.25 430.38 C 932.71 428.86, 932.97 428.10, 933.08 426.95 C 933.19 425.80, 933.15 425.19, 932.81 424.63 C 932.47 424.08, 931.97 423.95, 931.39 424.19" style="stroke: black; fill: black;"/><path d="M 916.95,448.38 C 917.42 448.68, 917.72 448.64, 918.77 448.64 C 919.81 448.64, 920.54 448.60, 922.17 448.37 C 923.79 448.14, 924.99 447.91, 926.89 447.50 C 928.79 447.09, 929.80 446.77, 931.68 446.31 C 933.57 445.85, 934.75 445.60, 936.31 445.20 C 937.87 444.80, 938.44 444.66, 939.47 444.32 C 940.50 443.97, 941.07 443.87, 941.46 443.48 C 941.84 443.09, 941.85 442.73, 941.41 442.37 C 940.97 442.02, 940.40 441.88, 939.27 441.70 C 938.13 441.53, 937.41 441.39, 935.73 441.50 C 934.05 441.61, 932.80 441.93, 930.86 442.24 C 928.92 442.55, 927.97 442.74, 926.04 443.07 C 924.10 443.40, 922.84 443.38, 921.18 443.88 C 919.52 444.37, 918.70 444.90, 917.75 445.55 C 916.80 446.20, 916.58 446.57, 916.42 447.14 C 916.26 447.71, 916.48 448.08, 916.95 448.38" style="stroke: black; fill: black;"/><path d="M 950.83,423.76 C 950.36 424.13, 950.41 424.72, 950.06 425.61 C 949.70 426.50, 949.56 426.94, 949.06 428.21 C 948.55 429.49, 948.26 430.33, 947.52 432.00 C 946.77 433.67, 946.20 434.60, 945.33 436.56 C 944.46 438.51, 943.98 439.73, 943.17 441.76 C 942.37 443.78, 942.01 444.81, 941.30 446.69 C 940.59 448.57, 940.20 449.50, 939.62 451.15 C 939.04 452.81, 938.80 453.60, 938.39 454.97 C 937.97 456.35, 937.68 456.98, 937.55 458.02 C 937.43 459.06, 937.40 459.57, 937.76 460.17 C 938.11 460.77, 938.59 460.99, 939.32 461.03 C 940.04 461.06, 940.51 460.91, 941.37 460.33 C 942.24 459.75, 942.67 459.16, 943.64 458.12 C 944.62 457.08, 945.05 456.24, 946.25 455.14 C 947.45 454.03, 948.24 453.51, 949.65 452.62 C 951.05 451.72, 951.94 451.31, 953.27 450.67 C 954.61 450.04, 955.24 449.75, 956.31 449.44 C 957.38 449.13, 957.89 449.13, 958.64 449.11 C 959.38 449.08, 959.70 449.08, 960.03 449.31 C 960.36 449.54, 960.30 449.64, 960.28 450.25 C 960.26 450.86, 960.09 451.35, 959.93 452.36 C 959.77 453.37, 959.63 454.10, 959.48 455.31 C 959.33 456.52, 959.17 457.19, 959.18 458.42 C 959.18 459.65, 959.11 460.77, 959.52 461.45 C 959.92 462.14, 960.52 462.30, 961.19 461.85 C 961.86 461.39, 962.37 460.36, 962.87 459.18 C 963.37 458.00, 963.48 457.27, 963.70 455.93 C 963.93 454.60, 964.07 453.80, 963.99 452.50 C 963.91 451.20, 963.79 450.49, 963.31 449.42 C 962.83 448.36, 962.49 447.85, 961.61 447.19 C 960.73 446.52, 960.11 446.29, 958.91 446.09 C 957.71 445.89, 957.00 445.95, 955.59 446.18 C 954.18 446.42, 953.45 446.68, 951.85 447.26 C 950.26 447.85, 949.31 448.22, 947.62 449.10 C 945.94 449.99, 944.96 450.56, 943.43 451.71 C 941.89 452.85, 941.00 453.60, 939.95 454.85 C 938.90 456.09, 938.51 456.91, 938.17 457.94 C 937.83 458.97, 938.01 459.49, 938.27 459.99 C 938.53 460.50, 938.96 460.67, 939.46 460.46 C 939.95 460.25, 940.29 459.84, 940.73 458.95 C 941.16 458.06, 941.21 457.32, 941.64 456.01 C 942.08 454.69, 942.29 453.96, 942.91 452.37 C 943.53 450.79, 943.96 449.90, 944.74 448.08 C 945.53 446.27, 945.95 445.26, 946.83 443.31 C 947.71 441.35, 948.21 440.24, 949.14 438.32 C 950.06 436.40, 950.68 435.49, 951.44 433.71 C 952.20 431.93, 952.57 430.96, 952.94 429.42 C 953.30 427.88, 953.39 427.15, 953.28 426.01 C 953.18 424.87, 952.90 424.17, 952.41 423.72 C 951.92 423.27, 951.31 423.38, 950.83 423.76" style="stroke: black; fill: black;"/><path d="M 975.29,459.25 C 975.45 459.68, 975.67 459.82, 976.26 460.09 C 976.86 460.36, 977.15 460.56, 978.27 460.60 C 979.39 460.65, 980.25 460.61, 981.86 460.30 C 983.47 460.00, 984.46 459.65, 986.32 459.09 C 988.19 458.52, 989.21 458.12, 991.19 457.48 C 993.16 456.84, 994.48 456.65, 996.20 455.87 C 997.93 455.09, 998.79 454.60, 999.81 453.59 C 1000.82 452.58, 1001.07 451.88, 1001.26 450.82 C 1001.44 449.75, 1001.43 449.13, 1000.74 448.25 C 1000.04 447.37, 999.30 446.74, 997.79 446.40 C 996.27 446.06, 995.17 446.16, 993.16 446.55 C 991.16 446.94, 990.05 447.49, 987.78 448.35 C 985.51 449.21, 984.10 449.74, 981.81 450.85 C 979.52 451.96, 978.18 452.65, 976.31 453.92 C 974.43 455.18, 973.53 455.88, 972.43 457.17 C 971.33 458.47, 971.03 459.10, 970.82 460.39 C 970.62 461.68, 970.69 462.46, 971.41 463.63 C 972.14 464.81, 972.94 465.43, 974.44 466.26 C 975.93 467.08, 977.06 467.32, 978.89 467.75 C 980.72 468.19, 981.97 468.35, 983.60 468.43 C 985.23 468.51, 985.95 468.29, 987.06 468.15 C 988.18 468.02, 988.72 468.06, 989.18 467.76 C 989.65 467.45, 989.75 467.11, 989.41 466.64 C 989.07 466.18, 988.50 465.89, 987.47 465.43 C 986.45 464.97, 985.79 464.79, 984.28 464.35 C 982.77 463.90, 981.61 463.58, 979.93 463.21 C 978.25 462.85, 977.19 462.79, 975.88 462.52 C 974.58 462.26, 973.98 462.23, 973.40 461.90 C 972.82 461.58, 972.76 461.41, 972.98 460.91 C 973.21 460.41, 973.47 460.15, 974.53 459.42 C 975.59 458.69, 976.49 458.19, 978.30 457.26 C 980.11 456.32, 981.40 455.70, 983.60 454.74 C 985.81 453.79, 987.21 453.27, 989.33 452.48 C 991.44 451.69, 992.53 451.28, 994.17 450.81 C 995.81 450.34, 996.52 450.28, 997.54 450.11 C 998.56 449.94, 998.94 449.95, 999.29 449.96 C 999.63 449.96, 999.55 449.90, 999.28 450.13 C 999.02 450.37, 998.85 450.72, 997.97 451.13 C 997.08 451.55, 996.45 451.75, 994.85 452.20 C 993.25 452.64, 991.89 452.84, 989.95 453.37 C 988.00 453.91, 986.92 454.40, 985.12 454.87 C 983.33 455.35, 982.45 455.45, 980.97 455.76 C 979.48 456.06, 978.67 456.09, 977.71 456.40 C 976.75 456.72, 976.61 457.03, 976.17 457.34 C 975.72 457.64, 975.66 457.55, 975.49 457.94 C 975.31 458.32, 975.14 458.82, 975.29 459.25" style="stroke: black; fill: black;"/><path d="M 1085.95,447.48 C 1085.81 446.93, 1085.55 446.60, 1084.77 446.14 C 1083.99 445.69, 1083.36 445.34, 1082.06 445.20 C 1080.77 445.07, 1079.90 445.20, 1078.31 445.46 C 1076.72 445.73, 1075.73 445.97, 1074.12 446.52 C 1072.51 447.07, 1071.62 447.48, 1070.25 448.21 C 1068.87 448.94, 1068.17 449.28, 1067.24 450.16 C 1066.32 451.04, 1065.88 451.54, 1065.63 452.59 C 1065.37 453.64, 1065.46 454.38, 1065.97 455.41 C 1066.48 456.45, 1067.09 456.95, 1068.19 457.74 C 1069.29 458.54, 1070.05 458.78, 1071.46 459.37 C 1072.88 459.96, 1073.80 460.22, 1075.27 460.68 C 1076.73 461.14, 1077.58 461.38, 1078.79 461.68 C 1080.00 461.99, 1080.58 462.10, 1081.33 462.21 C 1082.07 462.31, 1082.36 462.27, 1082.52 462.21 C 1082.68 462.14, 1082.58 461.89, 1082.12 461.89 C 1081.66 461.89, 1081.21 461.90, 1080.21 462.22 C 1079.21 462.54, 1078.57 462.87, 1077.12 463.48 C 1075.67 464.09, 1074.75 464.54, 1072.97 465.26 C 1071.18 465.98, 1070.04 466.46, 1068.18 467.08 C 1066.32 467.70, 1065.30 467.90, 1063.68 468.35 C 1062.05 468.81, 1061.13 469.04, 1060.04 469.35 C 1058.94 469.66, 1058.61 469.70, 1058.20 469.90 C 1057.78 470.11, 1057.93 470.34, 1057.97 470.37 C 1058.00 470.40, 1058.50 470.25, 1058.38 470.06 C 1058.25 469.86, 1057.67 469.30, 1057.36 469.39 C 1057.05 469.48, 1056.74 469.98, 1056.83 470.50 C 1056.92 471.01, 1057.08 471.53, 1057.80 471.96 C 1058.51 472.38, 1059.07 472.60, 1060.42 472.63 C 1061.76 472.65, 1062.72 472.41, 1064.51 472.10 C 1066.30 471.79, 1067.36 471.61, 1069.37 471.07 C 1071.38 470.54, 1072.64 470.12, 1074.56 469.41 C 1076.48 468.71, 1077.45 468.30, 1078.97 467.57 C 1080.48 466.83, 1081.16 466.52, 1082.16 465.74 C 1083.15 464.95, 1083.55 464.52, 1083.94 463.65 C 1084.33 462.77, 1084.35 462.19, 1084.09 461.36 C 1083.83 460.52, 1083.46 460.13, 1082.66 459.48 C 1081.86 458.83, 1081.28 458.68, 1080.09 458.11 C 1078.91 457.54, 1078.14 457.22, 1076.73 456.64 C 1075.33 456.07, 1074.41 455.71, 1073.08 455.22 C 1071.74 454.74, 1071.04 454.54, 1070.05 454.23 C 1069.06 453.92, 1068.59 453.85, 1068.12 453.67 C 1067.65 453.49, 1067.51 453.50, 1067.70 453.33 C 1067.88 453.17, 1068.21 453.14, 1069.04 452.84 C 1069.87 452.54, 1070.57 452.28, 1071.85 451.84 C 1073.12 451.40, 1073.94 451.04, 1075.39 450.64 C 1076.84 450.25, 1077.77 450.13, 1079.10 449.87 C 1080.43 449.61, 1081.06 449.45, 1082.03 449.33 C 1083.01 449.21, 1083.31 449.37, 1083.99 449.27 C 1084.67 449.18, 1085.06 449.24, 1085.45 448.88 C 1085.84 448.52, 1086.08 448.02, 1085.95 447.48" style="stroke: black; fill: black;"/><path d="M 1109.84,457.69 C 1110.40 457.62, 1110.91 457.41, 1111.28 456.70 C 1111.65 455.99, 1111.93 455.13, 1111.69 454.13 C 1111.46 453.14, 1110.86 452.51, 1110.09 451.72 C 1109.32 450.93, 1108.92 450.68, 1107.84 450.19 C 1106.75 449.71, 1106.06 449.40, 1104.66 449.29 C 1103.25 449.19, 1102.33 449.28, 1100.81 449.65 C 1099.29 450.01, 1098.52 450.38, 1097.05 451.12 C 1095.59 451.86, 1094.72 452.35, 1093.47 453.36 C 1092.23 454.37, 1091.73 455.00, 1090.84 456.17 C 1089.94 457.33, 1089.54 457.96, 1088.98 459.19 C 1088.42 460.42, 1088.06 461.06, 1088.04 462.33 C 1088.02 463.60, 1088.24 464.44, 1088.88 465.55 C 1089.52 466.66, 1090.03 467.12, 1091.24 467.87 C 1092.44 468.62, 1093.24 468.98, 1094.91 469.28 C 1096.58 469.59, 1097.58 469.63, 1099.59 469.39 C 1101.60 469.14, 1102.88 468.83, 1104.96 468.06 C 1107.03 467.29, 1108.10 466.68, 1109.97 465.53 C 1111.84 464.38, 1112.79 463.63, 1114.32 462.31 C 1115.84 460.98, 1116.58 460.26, 1117.60 458.90 C 1118.62 457.54, 1119.08 456.84, 1119.43 455.52 C 1119.77 454.20, 1119.67 453.36, 1119.32 452.30 C 1118.97 451.24, 1118.44 450.56, 1117.66 450.20 C 1116.87 449.84, 1115.85 450.11, 1115.41 450.49 C 1114.97 450.88, 1115.21 451.75, 1115.45 452.12 C 1115.69 452.48, 1116.35 452.16, 1116.60 452.31 C 1116.86 452.47, 1116.73 452.45, 1116.73 452.90 C 1116.73 453.36, 1116.94 453.82, 1116.59 454.58 C 1116.25 455.34, 1115.93 455.74, 1115.00 456.71 C 1114.07 457.67, 1113.33 458.31, 1111.92 459.40 C 1110.51 460.48, 1109.63 461.18, 1107.96 462.14 C 1106.28 463.10, 1105.34 463.56, 1103.55 464.19 C 1101.77 464.82, 1100.65 465.02, 1099.03 465.27 C 1097.41 465.52, 1096.68 465.54, 1095.44 465.44 C 1094.21 465.34, 1093.65 465.08, 1092.85 464.78 C 1092.05 464.48, 1091.77 464.38, 1091.43 463.94 C 1091.09 463.50, 1091.03 463.19, 1091.15 462.56 C 1091.27 461.92, 1091.54 461.59, 1092.04 460.76 C 1092.54 459.94, 1092.90 459.31, 1093.65 458.43 C 1094.39 457.55, 1094.74 457.10, 1095.77 456.37 C 1096.80 455.63, 1097.60 455.31, 1098.80 454.77 C 1100.01 454.22, 1100.64 453.95, 1101.79 453.67 C 1102.94 453.38, 1103.60 453.38, 1104.55 453.33 C 1105.51 453.28, 1106.02 453.27, 1106.57 453.43 C 1107.11 453.58, 1107.07 453.75, 1107.27 454.10 C 1107.46 454.46, 1107.41 454.81, 1107.53 455.21 C 1107.66 455.61, 1107.70 455.74, 1107.89 456.12 C 1108.07 456.49, 1108.06 456.76, 1108.45 457.07 C 1108.84 457.39, 1109.27 457.77, 1109.84 457.69" style="stroke: black; fill: black;"/><path d="M 1134.90,453.50 C 1134.43 453.37, 1134.30 453.46, 1133.67 453.69 C 1133.04 453.92, 1132.59 453.99, 1131.76 454.65 C 1130.93 455.32, 1130.30 455.94, 1129.53 457.00 C 1128.76 458.05, 1128.40 458.77, 1127.90 459.91 C 1127.41 461.06, 1127.07 461.65, 1127.06 462.71 C 1127.05 463.77, 1127.22 464.47, 1127.85 465.21 C 1128.48 465.95, 1129.10 466.23, 1130.21 466.40 C 1131.31 466.58, 1131.88 466.44, 1133.38 466.10 C 1134.88 465.77, 1135.86 465.50, 1137.69 464.75 C 1139.53 464.00, 1140.64 463.36, 1142.56 462.36 C 1144.49 461.36, 1145.51 460.75, 1147.31 459.74 C 1149.11 458.72, 1150.07 458.23, 1151.57 457.28 C 1153.08 456.34, 1153.95 455.93, 1154.84 455.02 C 1155.73 454.11, 1156.02 453.40, 1156.01 452.74 C 1155.99 452.08, 1155.49 451.67, 1154.78 451.72 C 1154.06 451.76, 1153.36 452.09, 1152.43 452.95 C 1151.50 453.81, 1151.02 454.59, 1150.14 456.02 C 1149.25 457.44, 1148.89 458.46, 1148.00 460.08 C 1147.12 461.69, 1146.51 462.54, 1145.72 464.09 C 1144.93 465.64, 1144.53 466.46, 1144.04 467.83 C 1143.56 469.20, 1143.34 469.87, 1143.31 470.94 C 1143.27 472.02, 1143.57 472.51, 1143.87 473.21 C 1144.18 473.91, 1144.42 474.14, 1144.84 474.46 C 1145.27 474.79, 1145.58 475.00, 1146.00 474.83 C 1146.42 474.67, 1146.83 474.06, 1146.93 473.65 C 1147.02 473.23, 1146.65 473.01, 1146.47 472.76 C 1146.29 472.50, 1146.09 472.64, 1146.01 472.37 C 1145.94 472.10, 1145.85 472.03, 1146.10 471.40 C 1146.34 470.78, 1146.64 470.32, 1147.24 469.26 C 1147.85 468.19, 1148.24 467.43, 1149.13 466.06 C 1150.03 464.69, 1150.66 463.89, 1151.72 462.41 C 1152.78 460.93, 1153.56 460.09, 1154.43 458.66 C 1155.31 457.23, 1155.72 456.44, 1156.08 455.24 C 1156.44 454.04, 1156.46 453.39, 1156.24 452.66 C 1156.02 451.92, 1155.67 451.65, 1154.99 451.58 C 1154.31 451.50, 1153.90 451.77, 1152.84 452.28 C 1151.79 452.79, 1151.20 453.32, 1149.72 454.11 C 1148.25 454.90, 1147.28 455.36, 1145.47 456.23 C 1143.66 457.11, 1142.58 457.63, 1140.68 458.49 C 1138.78 459.35, 1137.69 459.80, 1135.96 460.52 C 1134.23 461.23, 1133.26 461.48, 1132.04 462.05 C 1130.81 462.61, 1130.40 462.98, 1129.85 463.36 C 1129.29 463.74, 1129.24 463.88, 1129.25 463.94 C 1129.25 463.99, 1129.41 463.97, 1129.86 463.62 C 1130.31 463.27, 1130.79 462.93, 1131.49 462.19 C 1132.19 461.46, 1132.65 460.84, 1133.37 459.94 C 1134.10 459.04, 1134.58 458.52, 1135.10 457.69 C 1135.63 456.86, 1135.82 456.45, 1136.00 455.78 C 1136.19 455.11, 1136.23 454.79, 1136.01 454.33 C 1135.79 453.88, 1135.37 453.63, 1134.90 453.50" style="stroke: black; fill: black;"/><path d="M 1180.43,436.11 C 1179.92 436.11, 1179.73 436.33, 1179.14 436.81 C 1178.55 437.29, 1178.23 437.55, 1177.50 438.52 C 1176.77 439.49, 1176.47 440.20, 1175.49 441.67 C 1174.52 443.13, 1173.86 444.08, 1172.63 445.85 C 1171.40 447.62, 1170.62 448.64, 1169.34 450.51 C 1168.05 452.39, 1167.28 453.43, 1166.21 455.24 C 1165.15 457.04, 1164.78 457.92, 1164.00 459.56 C 1163.23 461.19, 1162.83 462.03, 1162.35 463.41 C 1161.87 464.78, 1161.80 465.38, 1161.60 466.44 C 1161.40 467.49, 1161.30 468.01, 1161.33 468.70 C 1161.37 469.40, 1161.49 469.62, 1161.77 469.91 C 1162.05 470.19, 1162.47 470.15, 1162.75 470.11 C 1163.02 470.07, 1163.28 469.73, 1163.13 469.72 C 1162.97 469.70, 1162.10 469.90, 1161.99 470.01 C 1161.87 470.13, 1162.24 470.30, 1162.55 470.30 C 1162.86 470.30, 1163.22 470.27, 1163.54 470.03 C 1163.86 469.79, 1163.92 469.69, 1164.14 469.12 C 1164.36 468.54, 1164.39 468.06, 1164.65 467.15 C 1164.90 466.24, 1164.93 465.77, 1165.42 464.57 C 1165.92 463.36, 1166.33 462.59, 1167.12 461.12 C 1167.90 459.65, 1168.24 458.85, 1169.35 457.22 C 1170.46 455.59, 1171.29 454.71, 1172.67 452.96 C 1174.05 451.20, 1174.90 450.23, 1176.23 448.45 C 1177.56 446.68, 1178.36 445.67, 1179.31 444.08 C 1180.27 442.50, 1180.52 441.68, 1181.01 440.53 C 1181.49 439.38, 1181.60 439.08, 1181.73 438.34 C 1181.87 437.60, 1181.95 437.27, 1181.69 436.82 C 1181.43 436.38, 1180.94 436.11, 1180.43 436.11" style="stroke: black; fill: black;"/><path d="M 1162.07,458.69 C 1162.22 459.19, 1162.48 459.49, 1163.16 459.87 C 1163.83 460.24, 1164.29 460.37, 1165.45 460.57 C 1166.61 460.78, 1167.44 460.99, 1168.95 460.90 C 1170.47 460.80, 1171.49 460.45, 1173.01 460.09 C 1174.52 459.73, 1175.28 459.66, 1176.54 459.11 C 1177.79 458.55, 1178.84 457.99, 1179.31 457.32 C 1179.77 456.66, 1179.57 456.11, 1178.87 455.79 C 1178.16 455.46, 1177.08 455.66, 1175.77 455.68 C 1174.47 455.70, 1173.75 455.76, 1172.33 455.87 C 1170.91 455.99, 1170.00 456.18, 1168.67 456.26 C 1167.34 456.34, 1166.70 456.18, 1165.67 456.27 C 1164.65 456.37, 1164.19 456.52, 1163.54 456.73 C 1162.89 456.94, 1162.71 456.94, 1162.42 457.34 C 1162.13 457.73, 1161.92 458.18, 1162.07 458.69" style="stroke: black; fill: black;"/><path d="M 1196.78,437.82 C 1196.34 437.92, 1196.43 438.06, 1195.84 438.58 C 1195.24 439.10, 1194.84 439.29, 1193.82 440.42 C 1192.81 441.55, 1192.10 442.47, 1190.77 444.24 C 1189.44 446.01, 1188.69 447.24, 1187.17 449.27 C 1185.65 451.31, 1184.64 452.35, 1183.18 454.42 C 1181.73 456.49, 1181.00 457.74, 1179.90 459.64 C 1178.79 461.55, 1178.30 462.39, 1177.67 463.94 C 1177.03 465.49, 1176.71 466.18, 1176.71 467.38 C 1176.70 468.58, 1177.00 469.19, 1177.63 469.93 C 1178.26 470.67, 1178.80 470.89, 1179.85 471.08 C 1180.90 471.26, 1181.55 471.18, 1182.87 470.86 C 1184.20 470.53, 1184.92 470.13, 1186.46 469.45 C 1188.00 468.77, 1188.98 468.28, 1190.58 467.46 C 1192.17 466.63, 1192.96 466.05, 1194.45 465.32 C 1195.94 464.60, 1196.74 464.27, 1198.04 463.83 C 1199.33 463.39, 1200.03 463.31, 1200.92 463.12 C 1201.80 462.93, 1202.08 462.78, 1202.45 462.89 C 1202.81 463.00, 1202.74 463.15, 1202.74 463.67 C 1202.73 464.20, 1202.50 464.65, 1202.42 465.51 C 1202.34 466.38, 1202.33 466.98, 1202.35 467.99 C 1202.36 469.01, 1202.45 469.54, 1202.49 470.60 C 1202.53 471.65, 1202.39 472.27, 1202.55 473.27 C 1202.71 474.27, 1202.87 474.89, 1203.29 475.61 C 1203.71 476.32, 1204.14 476.63, 1204.67 476.86 C 1205.20 477.08, 1205.70 476.94, 1205.95 476.73 C 1206.19 476.52, 1205.92 476.01, 1205.90 475.81 C 1205.88 475.62, 1205.70 475.94, 1205.84 475.75 C 1205.98 475.56, 1206.46 475.44, 1206.58 474.85 C 1206.71 474.27, 1206.53 473.70, 1206.47 472.82 C 1206.42 471.95, 1206.33 471.45, 1206.31 470.48 C 1206.29 469.51, 1206.36 469.01, 1206.37 467.97 C 1206.37 466.94, 1206.52 466.38, 1206.34 465.31 C 1206.16 464.24, 1206.04 463.54, 1205.48 462.61 C 1204.91 461.69, 1204.46 461.23, 1203.52 460.70 C 1202.57 460.17, 1202.05 460.05, 1200.76 459.97 C 1199.46 459.90, 1198.63 459.95, 1197.05 460.31 C 1195.48 460.66, 1194.54 461.10, 1192.88 461.76 C 1191.22 462.42, 1190.43 462.90, 1188.77 463.61 C 1187.11 464.32, 1186.06 464.61, 1184.57 465.30 C 1183.09 465.99, 1182.35 466.45, 1181.35 467.06 C 1180.35 467.67, 1180.03 468.00, 1179.57 468.34 C 1179.11 468.68, 1179.14 468.86, 1179.07 468.75 C 1179.00 468.64, 1178.93 468.46, 1179.22 467.79 C 1179.52 467.12, 1179.80 466.63, 1180.56 465.39 C 1181.32 464.15, 1181.85 463.32, 1183.02 461.61 C 1184.19 459.89, 1184.90 458.75, 1186.42 456.82 C 1187.94 454.90, 1188.99 453.94, 1190.62 451.98 C 1192.24 450.03, 1193.19 448.87, 1194.54 447.05 C 1195.88 445.23, 1196.58 444.32, 1197.35 442.89 C 1198.13 441.45, 1198.29 440.83, 1198.43 439.87 C 1198.57 438.91, 1198.38 438.52, 1198.05 438.11 C 1197.72 437.70, 1197.23 437.73, 1196.78 437.82" style="stroke: black; fill: black;"/><path d="M 1268.16,460.51 C 1267.68 460.79, 1267.55 461.23, 1267.34 461.73 C 1267.13 462.22, 1267.28 462.48, 1267.11 462.98 C 1266.94 463.48, 1266.84 463.63, 1266.48 464.23 C 1266.11 464.83, 1265.75 465.21, 1265.29 465.98 C 1264.84 466.75, 1264.60 467.23, 1264.20 468.09 C 1263.80 468.95, 1263.54 469.41, 1263.30 470.27 C 1263.06 471.14, 1262.99 471.67, 1263.00 472.42 C 1263.02 473.18, 1263.13 473.56, 1263.36 474.03 C 1263.59 474.51, 1263.86 474.62, 1264.16 474.79 C 1264.46 474.97, 1264.60 474.98, 1264.85 474.92 C 1265.09 474.86, 1265.22 474.64, 1265.40 474.49 C 1265.58 474.34, 1265.58 474.34, 1265.74 474.17 C 1265.91 474.01, 1266.08 473.96, 1266.22 473.68 C 1266.36 473.39, 1266.30 473.19, 1266.43 472.75 C 1266.55 472.31, 1266.58 472.07, 1266.84 471.48 C 1267.10 470.88, 1267.36 470.47, 1267.71 469.77 C 1268.06 469.07, 1268.15 468.67, 1268.58 467.98 C 1269.02 467.28, 1269.41 467.09, 1269.89 466.29 C 1270.37 465.50, 1270.79 464.93, 1270.99 464.00 C 1271.20 463.06, 1271.15 462.36, 1270.90 461.62 C 1270.66 460.88, 1270.30 460.53, 1269.76 460.30 C 1269.21 460.08, 1268.64 460.22, 1268.16 460.51" style="stroke: black; fill: black;"/><path d="M 1278.41,447.53 C 1278.11 447.15, 1277.16 447.11, 1276.83 447.46 C 1276.49 447.81, 1276.45 448.91, 1276.75 449.29 C 1277.05 449.67, 1278.00 449.71, 1278.34 449.36 C 1278.67 449.00, 1278.72 447.91, 1278.41 447.53" style="stroke: black; fill: black;"/><path d="M 1311.47,458.56 C 1311.63 458.08, 1311.64 457.61, 1311.17 456.99 C 1310.71 456.37, 1310.27 455.94, 1309.14 455.46 C 1308.01 454.98, 1307.29 454.72, 1305.53 454.59 C 1303.77 454.45, 1302.61 454.49, 1300.34 454.78 C 1298.07 455.07, 1296.58 455.31, 1294.19 456.03 C 1291.80 456.75, 1290.38 457.38, 1288.39 458.36 C 1286.41 459.34, 1285.46 459.81, 1284.27 460.94 C 1283.07 462.07, 1282.66 462.81, 1282.41 464.01 C 1282.16 465.21, 1282.42 465.87, 1283.02 466.94 C 1283.63 468.01, 1284.22 468.61, 1285.42 469.36 C 1286.62 470.11, 1287.54 470.30, 1289.02 470.69 C 1290.49 471.07, 1291.32 470.98, 1292.79 471.28 C 1294.26 471.58, 1295.04 471.89, 1296.37 472.18 C 1297.69 472.48, 1298.45 472.69, 1299.40 472.76 C 1300.36 472.83, 1300.76 472.72, 1301.15 472.55 C 1301.55 472.37, 1301.56 472.19, 1301.37 471.88 C 1301.17 471.57, 1300.93 471.25, 1300.17 471.00 C 1299.42 470.74, 1298.73 470.65, 1297.58 470.63 C 1296.42 470.61, 1295.71 470.88, 1294.38 470.89 C 1293.06 470.91, 1292.32 470.79, 1290.97 470.69 C 1289.61 470.58, 1288.79 470.52, 1287.60 470.36 C 1286.41 470.21, 1285.90 470.05, 1285.03 469.91 C 1284.16 469.76, 1283.82 469.71, 1283.26 469.65 C 1282.70 469.59, 1282.57 469.47, 1282.23 469.60 C 1281.90 469.73, 1281.62 469.88, 1281.58 470.29 C 1281.54 470.70, 1281.57 471.07, 1282.04 471.64 C 1282.50 472.21, 1282.94 472.65, 1283.91 473.14 C 1284.88 473.64, 1285.57 473.80, 1286.89 474.11 C 1288.21 474.43, 1289.04 474.51, 1290.51 474.72 C 1291.98 474.94, 1292.79 475.08, 1294.23 475.19 C 1295.67 475.29, 1296.43 475.35, 1297.70 475.27 C 1298.97 475.18, 1299.64 475.20, 1300.58 474.76 C 1301.52 474.33, 1302.06 473.87, 1302.41 473.10 C 1302.75 472.33, 1302.69 471.64, 1302.29 470.92 C 1301.89 470.19, 1301.37 469.97, 1300.39 469.46 C 1299.42 468.95, 1298.76 468.82, 1297.42 468.38 C 1296.08 467.94, 1295.18 467.61, 1293.70 467.25 C 1292.21 466.88, 1291.31 466.82, 1289.98 466.56 C 1288.64 466.29, 1288.00 466.17, 1287.01 465.91 C 1286.02 465.66, 1285.55 465.52, 1285.04 465.26 C 1284.52 464.99, 1284.23 464.96, 1284.43 464.59 C 1284.63 464.23, 1284.95 463.94, 1286.05 463.43 C 1287.15 462.92, 1288.05 462.66, 1289.92 462.04 C 1291.79 461.43, 1293.19 460.90, 1295.39 460.34 C 1297.59 459.78, 1298.95 459.53, 1300.94 459.24 C 1302.93 458.95, 1303.93 458.90, 1305.35 458.90 C 1306.76 458.89, 1307.19 459.11, 1308.02 459.22 C 1308.85 459.32, 1309.01 459.37, 1309.48 459.40 C 1309.95 459.44, 1309.97 459.57, 1310.37 459.40 C 1310.77 459.23, 1311.31 459.04, 1311.47 458.56" style="stroke: black; fill: black;"/><path d="M 1328.76,444.16 C 1328.17 444.27, 1327.77 444.62, 1327.14 445.38 C 1326.51 446.14, 1326.27 446.68, 1325.59 447.95 C 1324.92 449.23, 1324.54 450.09, 1323.78 451.74 C 1323.02 453.39, 1322.63 454.37, 1321.80 456.20 C 1320.98 458.04, 1320.50 459.09, 1319.64 460.90 C 1318.77 462.72, 1318.23 463.64, 1317.50 465.28 C 1316.77 466.92, 1316.52 467.68, 1315.98 469.09 C 1315.44 470.49, 1315.02 471.11, 1314.82 472.30 C 1314.61 473.48, 1314.72 474.07, 1314.95 475.02 C 1315.18 475.97, 1315.35 476.31, 1315.97 477.04 C 1316.60 477.78, 1317.05 478.21, 1318.05 478.69 C 1319.06 479.16, 1319.65 479.27, 1321.01 479.43 C 1322.38 479.58, 1323.16 479.64, 1324.87 479.47 C 1326.58 479.31, 1327.76 479.11, 1329.55 478.62 C 1331.35 478.12, 1332.41 477.72, 1333.83 476.98 C 1335.25 476.25, 1336.18 475.63, 1336.65 474.94 C 1337.13 474.25, 1336.97 473.82, 1336.20 473.54 C 1335.43 473.26, 1334.35 473.39, 1332.81 473.53 C 1331.27 473.67, 1330.20 473.90, 1328.50 474.23 C 1326.80 474.57, 1325.76 474.96, 1324.30 475.22 C 1322.85 475.47, 1322.27 475.49, 1321.25 475.51 C 1320.23 475.52, 1319.89 475.38, 1319.19 475.29 C 1318.48 475.19, 1318.10 475.17, 1317.73 475.04 C 1317.36 474.91, 1317.33 475.02, 1317.35 474.63 C 1317.36 474.25, 1317.45 473.96, 1317.80 473.12 C 1318.15 472.28, 1318.52 471.68, 1319.11 470.43 C 1319.71 469.18, 1319.98 468.42, 1320.79 466.88 C 1321.60 465.33, 1322.22 464.47, 1323.17 462.70 C 1324.13 460.92, 1324.66 459.83, 1325.58 458.01 C 1326.50 456.19, 1326.99 455.27, 1327.78 453.60 C 1328.56 451.92, 1329.05 451.01, 1329.51 449.63 C 1329.98 448.24, 1329.98 447.61, 1330.09 446.65 C 1330.20 445.70, 1330.33 445.34, 1330.06 444.84 C 1329.79 444.34, 1329.34 444.05, 1328.76 444.16" style="stroke: black; fill: black;"/><path d="M 1359.66,464.07 C 1360.14 463.76, 1360.47 463.33, 1360.52 462.66 C 1360.56 461.99, 1360.36 461.44, 1359.89 460.72 C 1359.41 460.01, 1359.00 459.63, 1358.13 459.09 C 1357.26 458.54, 1356.77 458.22, 1355.52 457.99 C 1354.28 457.76, 1353.42 457.68, 1351.89 457.94 C 1350.37 458.20, 1349.57 458.53, 1347.90 459.28 C 1346.23 460.04, 1345.20 460.59, 1343.55 461.71 C 1341.91 462.83, 1340.98 463.59, 1339.65 464.87 C 1338.32 466.15, 1337.61 466.81, 1336.92 468.11 C 1336.23 469.41, 1336.06 470.23, 1336.20 471.35 C 1336.34 472.47, 1336.71 473.00, 1337.61 473.71 C 1338.52 474.43, 1339.23 474.72, 1340.72 474.93 C 1342.22 475.14, 1343.28 475.08, 1345.10 474.77 C 1346.92 474.47, 1347.95 474.05, 1349.82 473.42 C 1351.70 472.78, 1352.68 472.40, 1354.46 471.59 C 1356.23 470.79, 1357.14 470.33, 1358.71 469.41 C 1360.28 468.49, 1361.14 467.89, 1362.33 467.00 C 1363.52 466.12, 1364.14 465.66, 1364.68 464.99 C 1365.23 464.31, 1365.26 463.95, 1365.05 463.61 C 1364.85 463.27, 1364.43 463.04, 1363.64 463.29 C 1362.85 463.54, 1362.00 463.93, 1361.10 464.87 C 1360.20 465.80, 1359.71 466.74, 1359.15 467.97 C 1358.59 469.20, 1358.50 469.94, 1358.31 471.00 C 1358.12 472.06, 1358.08 472.51, 1358.20 473.26 C 1358.31 474.00, 1358.49 474.34, 1358.88 474.72 C 1359.28 475.10, 1359.60 475.13, 1360.16 475.15 C 1360.72 475.16, 1361.37 475.06, 1361.67 474.80 C 1361.97 474.53, 1362.15 474.11, 1361.66 473.81 C 1361.16 473.52, 1359.74 473.37, 1359.20 473.32 C 1358.66 473.27, 1358.80 473.49, 1358.94 473.58 C 1359.08 473.66, 1359.61 473.67, 1359.92 473.73 C 1360.22 473.79, 1360.30 473.92, 1360.47 473.87 C 1360.63 473.82, 1360.53 473.77, 1360.74 473.48 C 1360.94 473.18, 1360.96 472.97, 1361.49 472.39 C 1362.01 471.82, 1362.58 471.51, 1363.36 470.60 C 1364.14 469.68, 1364.84 468.96, 1365.38 467.80 C 1365.92 466.65, 1366.06 465.78, 1366.05 464.82 C 1366.03 463.85, 1365.85 463.44, 1365.30 462.97 C 1364.75 462.50, 1364.31 462.29, 1363.30 462.46 C 1362.29 462.63, 1361.56 463.09, 1360.26 463.83 C 1358.97 464.57, 1358.28 465.31, 1356.82 466.16 C 1355.36 467.01, 1354.60 467.42, 1352.96 468.07 C 1351.32 468.72, 1350.35 468.95, 1348.62 469.40 C 1346.88 469.85, 1345.88 470.00, 1344.29 470.32 C 1342.70 470.64, 1341.81 470.74, 1340.68 470.98 C 1339.54 471.23, 1339.08 471.44, 1338.61 471.53 C 1338.14 471.62, 1338.13 471.72, 1338.33 471.43 C 1338.52 471.14, 1338.77 470.78, 1339.57 470.08 C 1340.36 469.38, 1341.00 468.89, 1342.28 467.94 C 1343.56 466.98, 1344.46 466.28, 1345.95 465.31 C 1347.44 464.34, 1348.37 463.78, 1349.72 463.09 C 1351.07 462.41, 1351.63 462.15, 1352.69 461.89 C 1353.75 461.63, 1354.31 461.74, 1355.01 461.78 C 1355.72 461.81, 1355.90 461.84, 1356.20 462.06 C 1356.50 462.27, 1356.34 462.54, 1356.52 462.86 C 1356.71 463.18, 1356.80 463.40, 1357.12 463.66 C 1357.43 463.93, 1357.61 464.11, 1358.12 464.19 C 1358.63 464.27, 1359.18 464.37, 1359.66 464.07" style="stroke: black; fill: black;"/><path d="M 1376.58,461.85 C 1376.03 461.65, 1375.59 461.77, 1374.82 462.07 C 1374.05 462.38, 1373.54 462.67, 1372.75 463.39 C 1371.95 464.11, 1371.47 464.72, 1370.84 465.69 C 1370.21 466.65, 1369.96 467.26, 1369.62 468.22 C 1369.27 469.17, 1369.04 469.69, 1369.13 470.46 C 1369.21 471.23, 1369.53 471.64, 1370.03 472.08 C 1370.53 472.52, 1370.96 472.59, 1371.64 472.64 C 1372.32 472.68, 1372.56 472.66, 1373.42 472.30 C 1374.28 471.94, 1374.85 471.60, 1375.94 470.82 C 1377.03 470.05, 1377.62 469.33, 1378.90 468.45 C 1380.17 467.56, 1380.97 467.11, 1382.32 466.41 C 1383.68 465.71, 1384.48 465.42, 1385.67 464.94 C 1386.86 464.45, 1387.50 464.24, 1388.26 463.99 C 1389.03 463.74, 1389.28 463.66, 1389.51 463.69 C 1389.74 463.71, 1389.63 463.78, 1389.39 464.10 C 1389.16 464.42, 1388.87 464.68, 1388.34 465.29 C 1387.81 465.90, 1387.43 466.28, 1386.74 467.14 C 1386.05 468.00, 1385.56 468.69, 1384.89 469.60 C 1384.23 470.51, 1383.93 470.97, 1383.42 471.69 C 1382.91 472.40, 1382.57 472.64, 1382.37 473.18 C 1382.16 473.73, 1382.32 474.09, 1382.40 474.41 C 1382.47 474.73, 1382.68 474.69, 1382.75 474.77 C 1382.83 474.86, 1382.69 474.76, 1382.78 474.84 C 1382.87 474.92, 1382.90 475.10, 1383.20 475.18 C 1383.51 475.26, 1383.73 475.43, 1384.30 475.25 C 1384.87 475.07, 1385.28 474.86, 1386.05 474.28 C 1386.83 473.70, 1387.32 473.25, 1388.18 472.34 C 1389.03 471.43, 1389.60 470.81, 1390.31 469.75 C 1391.02 468.69, 1391.38 468.16, 1391.74 467.04 C 1392.10 465.92, 1392.31 465.21, 1392.11 464.16 C 1391.91 463.12, 1391.56 462.45, 1390.74 461.79 C 1389.91 461.14, 1389.24 460.96, 1388.00 460.88 C 1386.76 460.80, 1386.02 461.04, 1384.55 461.40 C 1383.07 461.76, 1382.23 462.03, 1380.62 462.68 C 1379.01 463.32, 1378.01 463.77, 1376.51 464.63 C 1375.00 465.48, 1374.23 466.09, 1373.09 466.96 C 1371.96 467.83, 1371.40 468.22, 1370.82 468.99 C 1370.24 469.76, 1370.15 470.26, 1370.20 470.80 C 1370.24 471.34, 1370.65 471.60, 1371.03 471.71 C 1371.41 471.82, 1371.68 471.69, 1372.10 471.35 C 1372.51 471.01, 1372.64 470.65, 1373.12 470.02 C 1373.59 469.39, 1373.88 468.96, 1374.45 468.22 C 1375.02 467.49, 1375.42 467.07, 1375.95 466.35 C 1376.49 465.63, 1376.78 465.30, 1377.11 464.64 C 1377.43 463.98, 1377.67 463.61, 1377.56 463.05 C 1377.46 462.49, 1377.13 462.04, 1376.58 461.85" style="stroke: black; fill: black;"/><path d="M 1408.74,462.21 C 1408.46 461.82, 1408.21 461.59, 1407.42 461.50 C 1406.62 461.40, 1406.01 461.35, 1404.76 461.74 C 1403.52 462.13, 1402.68 462.58, 1401.20 463.47 C 1399.73 464.36, 1398.83 465.00, 1397.39 466.18 C 1395.96 467.37, 1395.18 468.13, 1394.04 469.39 C 1392.91 470.65, 1392.22 471.34, 1391.71 472.49 C 1391.20 473.64, 1391.26 474.22, 1391.49 475.13 C 1391.71 476.04, 1391.99 476.50, 1392.82 477.06 C 1393.66 477.61, 1394.37 477.90, 1395.66 477.92 C 1396.94 477.93, 1397.71 477.63, 1399.23 477.15 C 1400.75 476.66, 1401.57 476.28, 1403.25 475.49 C 1404.94 474.71, 1405.87 474.25, 1407.66 473.21 C 1409.46 472.18, 1410.48 471.58, 1412.23 470.33 C 1413.98 469.07, 1414.95 468.31, 1416.43 466.93 C 1417.91 465.55, 1418.52 464.81, 1419.65 463.45 C 1420.79 462.09, 1421.27 461.40, 1422.10 460.13 C 1422.94 458.86, 1423.36 458.27, 1423.83 457.11 C 1424.30 455.95, 1424.40 455.36, 1424.45 454.33 C 1424.51 453.31, 1424.36 452.78, 1424.10 451.99 C 1423.84 451.20, 1423.68 450.80, 1423.16 450.40 C 1422.64 450.00, 1422.15 449.89, 1421.51 449.99 C 1420.87 450.09, 1420.45 450.50, 1419.96 450.89 C 1419.47 451.29, 1419.35 451.42, 1419.05 451.97 C 1418.75 452.51, 1418.67 452.87, 1418.48 453.64 C 1418.29 454.41, 1418.44 454.88, 1418.08 455.83 C 1417.72 456.77, 1417.35 457.18, 1416.67 458.38 C 1415.99 459.57, 1415.44 460.35, 1414.68 461.80 C 1413.92 463.25, 1413.54 464.14, 1412.87 465.62 C 1412.19 467.10, 1411.87 467.89, 1411.31 469.21 C 1410.74 470.53, 1410.47 471.22, 1410.06 472.24 C 1409.64 473.26, 1409.39 473.64, 1409.22 474.32 C 1409.06 474.99, 1409.17 475.25, 1409.22 475.62 C 1409.27 475.98, 1409.35 475.98, 1409.47 476.15 C 1409.60 476.31, 1409.63 476.38, 1409.84 476.45 C 1410.05 476.51, 1410.13 476.60, 1410.51 476.46 C 1410.89 476.33, 1411.21 476.30, 1411.74 475.77 C 1412.27 475.24, 1412.57 474.79, 1413.17 473.80 C 1413.76 472.80, 1414.04 472.08, 1414.70 470.80 C 1415.36 469.52, 1415.72 468.79, 1416.46 467.39 C 1417.20 465.98, 1417.64 465.19, 1418.40 463.78 C 1419.16 462.37, 1419.57 461.63, 1420.25 460.36 C 1420.93 459.09, 1421.28 458.55, 1421.81 457.43 C 1422.34 456.32, 1422.62 455.79, 1422.89 454.79 C 1423.16 453.79, 1423.30 453.11, 1423.14 452.43 C 1422.99 451.75, 1422.48 451.52, 1422.11 451.38 C 1421.74 451.25, 1421.51 451.61, 1421.29 451.76 C 1421.07 451.91, 1421.03 451.91, 1421.02 452.13 C 1421.00 452.35, 1421.10 452.46, 1421.20 452.87 C 1421.30 453.27, 1421.56 453.57, 1421.52 454.16 C 1421.48 454.74, 1421.43 454.98, 1420.98 455.78 C 1420.54 456.58, 1420.09 457.10, 1419.29 458.17 C 1418.50 459.25, 1418.07 459.97, 1417.00 461.15 C 1415.93 462.34, 1415.36 462.94, 1413.95 464.12 C 1412.54 465.30, 1411.60 465.93, 1409.95 467.04 C 1408.29 468.16, 1407.35 468.77, 1405.67 469.69 C 1404.00 470.62, 1403.13 471.03, 1401.56 471.69 C 1400.00 472.35, 1399.15 472.53, 1397.84 472.99 C 1396.54 473.45, 1395.90 473.64, 1395.04 473.99 C 1394.17 474.35, 1393.87 474.58, 1393.51 474.77 C 1393.15 474.97, 1393.10 475.07, 1393.24 474.99 C 1393.38 474.90, 1393.49 474.87, 1394.22 474.34 C 1394.94 473.82, 1395.70 473.29, 1396.87 472.35 C 1398.04 471.41, 1398.72 470.61, 1400.07 469.65 C 1401.42 468.69, 1402.29 468.31, 1403.62 467.53 C 1404.94 466.76, 1405.75 466.41, 1406.68 465.78 C 1407.61 465.14, 1407.83 464.80, 1408.27 464.34 C 1408.70 463.88, 1408.75 463.89, 1408.85 463.46 C 1408.94 463.04, 1409.03 462.61, 1408.74 462.21" style="stroke: black; fill: black;"/><path d="M 1440.45,476.14 C 1439.98 476.07, 1439.74 476.06, 1439.11 476.46 C 1438.48 476.86, 1438.11 477.22, 1437.30 478.13 C 1436.49 479.04, 1436.09 479.66, 1435.05 481.02 C 1434.00 482.39, 1433.35 483.31, 1432.09 484.95 C 1430.82 486.58, 1430.08 487.57, 1428.71 489.19 C 1427.34 490.81, 1426.55 491.66, 1425.23 493.03 C 1423.90 494.40, 1423.14 495.02, 1422.09 496.04 C 1421.04 497.07, 1420.47 497.53, 1419.97 498.15 C 1419.47 498.78, 1419.44 498.97, 1419.57 499.16 C 1419.71 499.36, 1420.32 499.42, 1420.62 499.14 C 1420.93 498.87, 1421.42 498.24, 1421.08 497.79 C 1420.74 497.34, 1419.52 496.77, 1418.94 496.91 C 1418.36 497.04, 1418.14 497.82, 1418.19 498.47 C 1418.23 499.12, 1418.54 499.76, 1419.17 500.16 C 1419.80 500.56, 1420.29 500.76, 1421.33 500.48 C 1422.37 500.20, 1423.05 499.71, 1424.36 498.77 C 1425.67 497.83, 1426.41 497.13, 1427.89 495.77 C 1429.38 494.40, 1430.27 493.56, 1431.79 491.94 C 1433.31 490.33, 1434.12 489.33, 1435.49 487.69 C 1436.86 486.05, 1437.58 485.18, 1438.65 483.76 C 1439.72 482.34, 1440.23 481.73, 1440.84 480.60 C 1441.45 479.48, 1441.56 478.90, 1441.69 478.15 C 1441.81 477.40, 1441.71 477.24, 1441.46 476.84 C 1441.22 476.44, 1440.92 476.22, 1440.45 476.14" style="stroke: black; fill: black;"/><path d="M 1477.51,467.32 C 1477.44 467.51, 1477.27 466.95, 1476.91 466.97 C 1476.54 466.98, 1476.00 467.06, 1475.69 467.39 C 1475.39 467.72, 1475.60 467.98, 1475.38 468.62 C 1475.17 469.26, 1474.84 469.73, 1474.63 470.61 C 1474.41 471.49, 1474.44 472.16, 1474.31 473.01 C 1474.19 473.87, 1474.06 474.14, 1474.02 474.90 C 1473.97 475.66, 1473.77 476.11, 1474.09 476.80 C 1474.40 477.49, 1474.83 478.04, 1475.59 478.34 C 1476.35 478.64, 1477.02 478.61, 1477.88 478.29 C 1478.73 477.98, 1479.03 477.53, 1479.85 476.77 C 1480.68 476.01, 1481.02 475.49, 1482.00 474.48 C 1482.99 473.46, 1483.63 472.75, 1484.80 471.69 C 1485.97 470.63, 1486.54 470.08, 1487.86 469.18 C 1489.17 468.29, 1489.97 467.86, 1491.38 467.21 C 1492.80 466.55, 1493.64 466.36, 1494.94 465.90 C 1496.24 465.45, 1496.95 465.18, 1497.87 464.93 C 1498.78 464.68, 1499.03 464.57, 1499.50 464.67 C 1499.97 464.77, 1500.07 465.00, 1500.23 465.44 C 1500.39 465.89, 1500.45 466.14, 1500.30 466.88 C 1500.16 467.62, 1499.92 468.10, 1499.52 469.14 C 1499.12 470.18, 1498.91 470.87, 1498.30 472.09 C 1497.70 473.30, 1497.18 473.95, 1496.51 475.24 C 1495.85 476.53, 1495.47 477.38, 1494.98 478.54 C 1494.49 479.70, 1494.35 480.11, 1494.06 481.04 C 1493.78 481.97, 1493.57 482.43, 1493.56 483.18 C 1493.55 483.93, 1493.72 484.26, 1494.02 484.80 C 1494.32 485.34, 1494.62 485.71, 1495.06 485.88 C 1495.51 486.06, 1496.04 486.05, 1496.24 485.67 C 1496.44 485.29, 1496.17 484.35, 1496.09 484.00 C 1496.00 483.65, 1495.83 483.92, 1495.82 483.92 C 1495.81 483.92, 1495.98 484.06, 1496.04 484.00 C 1496.11 483.95, 1495.97 483.97, 1496.15 483.64 C 1496.33 483.30, 1496.54 483.00, 1496.96 482.32 C 1497.38 481.64, 1497.64 481.25, 1498.27 480.23 C 1498.90 479.21, 1499.37 478.50, 1500.12 477.23 C 1500.87 475.95, 1501.35 475.25, 1502.01 473.88 C 1502.66 472.51, 1503.01 471.77, 1503.39 470.37 C 1503.77 468.98, 1504.03 468.19, 1503.89 466.89 C 1503.76 465.60, 1503.41 464.85, 1502.71 463.90 C 1502.00 462.96, 1501.43 462.60, 1500.38 462.17 C 1499.33 461.74, 1498.76 461.72, 1497.46 461.75 C 1496.16 461.79, 1495.40 461.95, 1493.87 462.35 C 1492.34 462.74, 1491.45 463.02, 1489.82 463.73 C 1488.20 464.44, 1487.29 464.96, 1485.75 465.91 C 1484.20 466.85, 1483.50 467.38, 1482.11 468.46 C 1480.71 469.53, 1479.88 470.17, 1478.77 471.26 C 1477.66 472.36, 1477.18 473.02, 1476.57 473.92 C 1475.95 474.81, 1475.83 475.22, 1475.70 475.75 C 1475.57 476.27, 1475.75 476.35, 1475.93 476.54 C 1476.10 476.73, 1476.29 476.83, 1476.57 476.70 C 1476.85 476.57, 1477.01 476.39, 1477.34 475.88 C 1477.67 475.37, 1477.87 474.91, 1478.22 474.14 C 1478.56 473.36, 1478.73 472.90, 1479.07 472.01 C 1479.42 471.12, 1479.78 470.56, 1479.93 469.69 C 1480.07 468.82, 1480.03 468.35, 1479.79 467.65 C 1479.55 466.96, 1479.23 466.54, 1478.72 466.21 C 1478.22 465.88, 1477.51 465.80, 1477.26 466.02 C 1477.02 466.24, 1477.58 467.13, 1477.51 467.32" style="stroke: black; fill: black;"/><path d="M 1509.92,469.49 C 1510.12 469.96, 1510.32 470.19, 1511.10 470.54 C 1511.88 470.88, 1512.50 471.12, 1513.82 471.22 C 1515.15 471.32, 1516.05 471.16, 1517.70 471.04 C 1519.35 470.92, 1520.37 470.80, 1522.08 470.63 C 1523.79 470.46, 1524.80 470.36, 1526.24 470.20 C 1527.69 470.03, 1528.43 469.98, 1529.28 469.79 C 1530.14 469.61, 1530.45 469.38, 1530.52 469.28 C 1530.58 469.17, 1530.36 469.10, 1529.62 469.26 C 1528.88 469.42, 1528.31 469.46, 1526.81 470.07 C 1525.31 470.69, 1524.07 471.31, 1522.12 472.34 C 1520.17 473.37, 1518.95 474.04, 1517.04 475.22 C 1515.13 476.39, 1514.11 477.06, 1512.57 478.22 C 1511.04 479.38, 1510.20 479.90, 1509.37 481.02 C 1508.53 482.14, 1508.33 482.83, 1508.41 483.84 C 1508.48 484.85, 1508.91 485.43, 1509.75 486.06 C 1510.59 486.70, 1511.27 486.82, 1512.60 487.04 C 1513.93 487.25, 1514.79 487.27, 1516.39 487.13 C 1517.99 486.99, 1518.91 486.70, 1520.61 486.33 C 1522.31 485.97, 1523.17 485.76, 1524.87 485.30 C 1526.58 484.85, 1527.63 484.53, 1529.12 484.05 C 1530.62 483.56, 1531.29 483.29, 1532.37 482.87 C 1533.45 482.45, 1533.87 482.36, 1534.53 481.95 C 1535.19 481.54, 1535.44 481.18, 1535.68 480.80 C 1535.92 480.41, 1535.77 480.26, 1535.71 480.02 C 1535.65 479.79, 1535.56 479.77, 1535.39 479.63 C 1535.22 479.48, 1535.22 479.36, 1534.86 479.31 C 1534.50 479.25, 1534.25 479.27, 1533.58 479.35 C 1532.90 479.42, 1532.58 479.49, 1531.48 479.68 C 1530.39 479.86, 1529.61 479.92, 1528.08 480.27 C 1526.56 480.62, 1525.51 481.01, 1523.86 481.42 C 1522.22 481.84, 1521.43 482.11, 1519.86 482.36 C 1518.29 482.60, 1517.47 482.56, 1516.02 482.67 C 1514.56 482.79, 1513.69 482.71, 1512.58 482.93 C 1511.47 483.16, 1510.95 483.59, 1510.46 483.81 C 1509.97 484.03, 1509.94 484.15, 1510.13 484.02 C 1510.32 483.89, 1510.53 483.70, 1511.43 483.17 C 1512.32 482.64, 1513.07 482.20, 1514.61 481.36 C 1516.15 480.53, 1517.16 479.94, 1519.11 479.00 C 1521.06 478.06, 1522.38 477.67, 1524.36 476.66 C 1526.35 475.64, 1527.61 474.99, 1529.04 473.91 C 1530.46 472.82, 1530.93 472.31, 1531.49 471.24 C 1532.04 470.18, 1532.16 469.47, 1531.80 468.58 C 1531.45 467.70, 1530.84 467.26, 1529.71 466.80 C 1528.58 466.33, 1527.73 466.35, 1526.15 466.26 C 1524.57 466.16, 1523.58 466.29, 1521.83 466.32 C 1520.08 466.35, 1519.04 466.31, 1517.41 466.40 C 1515.77 466.50, 1514.89 466.58, 1513.66 466.77 C 1512.42 466.97, 1511.95 467.11, 1511.23 467.40 C 1510.51 467.68, 1510.32 467.77, 1510.06 468.18 C 1509.79 468.60, 1509.71 469.02, 1509.92 469.49" style="stroke: black; fill: black;"/></svg>